<svg width="87" height="71" viewBox="0 0 87 71" fill="none" xmlns="http://www.w3.org/2000/svg">
<path fill-rule="evenodd" clip-rule="evenodd" d="M73 58.7134L32.7455 69L19 13.4211L59.4214 3L73 58.7134Z" fill="black" fill-opacity="0.04"/>
<path fill-rule="evenodd" clip-rule="evenodd" d="M75 56.1355L34 66.5L20 10.5L61.1699 0L75 56.1355Z" fill="white"/>
<path fill-rule="evenodd" clip-rule="evenodd" d="M17.4276 34C17.4276 34 20.9699 36.051 22.0324 37.7602C23.0952 39.4693 24.1576 41.3494 23.9805 42.3749C23.8034 43.4004 20.6157 46.8187 19.73 46.9896C18.8447 47.1605 15.9431 45.1786 15.2347 43.9822C14.5263 42.7858 13 40.6657 13 40.6657L17.4276 34Z" fill="#E3AA92"/>
<path fill-rule="evenodd" clip-rule="evenodd" d="M21.9475 44C21.9019 43.9186 21.7818 43.7047 21.6125 43.4056C21.3939 43.0197 21.0938 42.4927 20.7673 41.9284C20.6223 41.6778 20.472 41.4198 20.3215 41.1635L20.3867 41.1028C21.1079 42.3295 21.8221 43.5987 22 43.9159C21.9826 43.944 21.9651 43.972 21.9475 44ZM18.9374 38.9308C18.9365 38.9297 18.9358 38.9284 18.935 38.9273C18.2101 37.8991 16.5042 37.2556 16.0914 37.1142C16.0324 37.0938 16.0002 37.0837 16 37.0837L16.0126 37.0402C16.0189 37.0268 16.0255 37.0135 16.0318 37C16.1649 37.044 18.1671 37.6993 19.0017 38.8706L18.9374 38.9308Z" fill="#956550"/>
<path fill-rule="evenodd" clip-rule="evenodd" d="M20.2648 45.1146L20.1171 45.0882C19.6104 44.5775 19.0779 43.751 18.603 42.9385C18.5076 42.775 18.4145 42.6122 18.3248 42.4524L18.3892 42.395C18.4816 42.5593 18.5775 42.7272 18.6758 42.8959C19.176 43.754 19.7464 44.628 20.2648 45.1146ZM16.9974 40.3256C16.8145 40.1802 16.5833 40.0343 16.3414 39.8997C15.9263 39.6681 15.48 39.4668 15.1896 39.343C14.9961 39.2606 14.8725 39.2127 14.8721 39.2127L14.9027 39.1338C14.9034 39.1341 15.4029 39.3275 15.9604 39.6043C16.3487 39.7979 16.764 40.0291 17.0614 40.2684L16.9974 40.3256Z" fill="#956550"/>
<path fill-rule="evenodd" clip-rule="evenodd" d="M27.418 37.1941C27.413 37.2463 27.4077 37.302 27.4028 37.3579C27.401 37.3899 27.3976 37.4236 27.3942 37.4574C27.3875 37.5251 27.3824 37.5942 27.3758 37.667C27.3621 37.8139 27.3488 37.9708 27.3334 38.1347C27.3267 38.2024 27.3218 38.2698 27.315 38.339C27.3098 38.388 27.3066 38.4386 27.3013 38.4895C27.2897 38.6161 27.2777 38.7477 27.2643 38.8811C27.2339 39.1919 27.2019 39.5212 27.1645 39.8608C27.1544 39.9586 27.1427 40.0566 27.1326 40.1564C27.102 40.4197 27.0718 40.6882 27.0379 40.9603C27.0296 41.0378 27.0195 41.1157 27.0092 41.1934C26.9637 41.5478 26.9147 41.9076 26.8607 42.2656C26.8234 42.5122 26.7845 42.7588 26.7423 43.002C26.7356 43.0476 26.7273 43.0948 26.7187 43.1406C26.7053 43.2215 26.6918 43.3027 26.6764 43.382C26.6395 43.5848 26.6021 43.7839 26.5618 43.9798C26.5449 44.0659 26.5263 44.1504 26.5076 44.2348C26.3809 44.8259 26.239 45.3784 26.0771 45.8629C25.2529 48.3356 25.7155 51.4532 23.2263 54.2701C23.1636 54.3393 23.1011 54.407 23.0371 54.4761C22.3158 55.2412 21.7044 55.9709 21.1775 56.7005C19.7286 58.705 18.9279 60.703 18.3083 63.4271C17.4637 67.1426 17.9705 76.6002 17.9705 76.6002L17.1396 76.6391L3.78406 77.2758C3.78406 77.2758 5.64181 70.3514 6.48607 64.6093C6.80206 62.4526 7.02499 60.796 7.15165 59.4179C7.1753 59.161 7.19556 58.9144 7.21228 58.6763C7.34756 56.7782 7.27325 55.3932 6.9929 53.8006C6.48607 50.9295 6.14847 47.3829 4.96609 43.6674C4.62663 42.6034 4.40032 41.8147 4.29899 41.1729C4.26353 40.95 4.24495 40.7439 4.24157 40.5516C4.21793 39.3626 4.80244 38.6346 6.14847 37.0808C8.34399 34.5475 13.9172 29.4809 15.2682 29.312C16.0874 29.209 20.252 29.7275 23.4457 30.376C25.2646 30.746 26.7695 31.1596 27.1612 31.5246C27.2171 31.5751 27.2508 31.6275 27.2591 31.6764C27.3689 32.3369 26.4045 33.1407 24.8307 33.6186C23.9878 33.877 22.9729 34.0408 21.8547 34.0408C18.6461 34.0408 17.4637 33.872 17.4637 33.872C17.4637 33.872 14.9306 38.9385 14.5928 39.6141C14.3376 40.1241 15.2396 42.563 15.6956 43.725C15.8424 44.1014 15.9439 44.3429 15.9439 44.3429L16.4757 44.4375L20.6355 45.1808L20.6727 45.1873C20.6727 45.1873 22.5305 42.8229 22.6993 41.303C22.8682 39.783 23.2058 35.3919 25.4014 34.3786C25.4554 34.3533 25.5078 34.3315 25.5586 34.3095C25.6564 34.2688 25.7509 34.2335 25.8406 34.2048C25.8742 34.1928 25.908 34.1829 25.9401 34.1743C25.9926 34.1591 26.0431 34.1474 26.0921 34.1354C26.1174 34.1304 26.1445 34.1253 26.1698 34.1204C26.2206 34.1119 26.2696 34.1052 26.3167 34.1C26.3405 34.0984 26.3642 34.0966 26.3861 34.0949C26.5701 34.0849 26.7273 34.1136 26.8573 34.1726C26.9534 34.2148 27.0363 34.2758 27.1054 34.3518C27.5699 34.8431 27.5295 35.9611 27.428 37.0808C27.4246 37.1181 27.4214 37.1551 27.418 37.1941Z" fill="#EEBAA4"/>
<path fill-rule="evenodd" clip-rule="evenodd" d="M27.5 31.5C27.3388 31.6647 26.6046 31.9716 26.3959 31.987C25.7646 32.0308 25.1281 31.9641 24.5077 31.7865C24.132 31.6781 23.303 31.3372 23 31C23 31 21.9944 30.4067 22 30C24.5 30 27.0793 30.9438 27.5 31.5Z" fill="#F7DFD5"/>
<path fill-rule="evenodd" clip-rule="evenodd" d="M30 31.8002L2.01922 56.6932C1.52014 57.1373 0.75395 57.0942 0.308222 56.597C-0.137837 56.1 -0.0945901 55.3371 0.404493 54.8928L28.3853 30L32.5 28L30 31.8002Z" fill="#B09191"/>
<path fill-rule="evenodd" clip-rule="evenodd" d="M2.5 53L4 55L6 53L4.40104 51.3175L2.5 53Z" fill="#615757"/>
<path fill-rule="evenodd" clip-rule="evenodd" d="M27.9332 36.9617C27.9056 37.253 27.8747 37.6064 27.8366 38.0063C27.6386 40.1323 27.2798 43.5524 26.5543 45.6667C25.713 48.1176 25.5408 51.2079 23 54L21 44.9905L21.0379 44.9971C21.0379 44.9971 22.9342 42.6534 23.1066 41.1468C23.2789 39.6401 23.6235 35.2877 25.8646 34.2832C26.025 34.2113 26.1733 34.1543 26.3129 34.111C28.1038 33.5435 28.0937 35.2525 27.9332 36.9617Z" fill="#EEBAA4"/>
<path fill-rule="evenodd" clip-rule="evenodd" d="M27.9152 36.9094C27.8799 37.1956 27.8407 37.5427 27.7923 37.9356C27.7444 37.9471 27.6962 37.9522 27.648 37.957C27.1899 38.0081 26.7236 38.013 26.2634 37.9751C26.0051 37.9538 25.7379 37.9142 25.5276 37.7991C25.2165 37.6299 25.0871 37.329 25.0367 37.0426C24.8768 36.1661 25.2669 35.3013 25.6787 34.4922C25.7355 34.3802 25.7861 34.2405 25.8561 34.1091C28.1318 33.5514 28.1189 35.2304 27.9152 36.9094Z" fill="#F7DFD5"/>
<path fill-rule="evenodd" clip-rule="evenodd" d="M21.0582 45L21.0347 44.9958L21.0261 44.9943L21 44.9896C21.1871 44.7088 21.3797 44.4323 21.5689 44.1541C21.7112 43.9434 21.856 43.7339 21.9948 43.5213C22.0061 43.5406 22.012 43.5507 22.012 43.5509L22.0503 43.5285C21.576 44.3399 21.0582 45 21.0582 45ZM22.0669 43.5C22.0609 43.4896 22.0516 43.4738 22.0393 43.4529C22.1895 43.2199 22.3317 42.9827 22.4548 42.7361C22.5767 42.4876 22.6748 42.2266 22.7183 41.9539C22.76 41.6809 22.7838 41.3994 22.8177 41.1218C22.8615 40.7471 22.9107 40.3727 22.9701 40C22.9801 40.0196 22.9901 40.0392 23 40.0586C22.9035 40.7012 22.851 41.2675 22.8099 41.6374C22.7478 42.1972 22.4214 42.8895 22.0669 43.5Z" fill="#956550"/>
<path fill-rule="evenodd" clip-rule="evenodd" d="M19.0743 50C19.0645 50 19.0547 49.9974 19.045 49.992C19.0074 49.9705 18.9898 49.9118 19.006 49.8612L19.0062 49.8602C19.023 49.8087 19.04 49.7575 19.0569 49.7062C19.2129 49.5307 19.3074 49.256 19.3911 48.9993C19.8448 47.6237 20.3741 46.2915 20.9714 45.0207L21 45.1548C20.8881 45.3856 20.7786 45.6181 20.6738 45.8541C20.095 47.1649 19.5905 48.5386 19.1435 49.9374L19.1428 49.9396C19.1307 49.9775 19.1032 50 19.0743 50ZM20.9685 45.0064L20.9418 45L20.9685 45.0064Z" fill="#875D4B"/>
<mask id="mask0_2265_4377" style="mask-type:alpha" maskUnits="userSpaceOnUse" x="54" y="49" width="33" height="27">
<path d="M54.5 49.5H86.7067L86.5 76H54.4424L54.5 49.5Z" fill="white"/>
</mask>
<g mask="url(#mask0_2265_4377)">
<path fill-rule="evenodd" clip-rule="evenodd" d="M87 77.2033L63.3131 79.4112C63.3131 79.4112 61.6408 75.6947 59.8888 73.7454C59.7861 73.6309 59.6812 73.513 59.5779 73.3949C58.011 71.6039 56.4925 69.4981 57.1297 68.7864C57.1633 68.7462 57.2008 68.7126 57.2461 68.6835C57.4465 68.553 57.7471 68.4312 58.1339 68.3596C59.5992 68.0901 62.2699 68.5626 65.0645 72.1322C65.1028 72.1835 65.1432 72.2347 65.1836 72.2877C65.1836 72.2877 64.4881 69.9988 62.1858 67.3174C60.1475 64.941 54.6993 59.0437 54.7945 56.4349C54.8058 56.0986 54.909 55.8179 55.1215 55.6066C55.6552 55.0767 56.3364 55.1035 57.1037 55.4822C59.0371 56.431 61.524 59.6091 63.5992 61.7553C66.5274 64.7822 71.2922 69.8466 71.2922 69.8466C71.2922 69.8466 68.4856 63.0491 66.0807 59.8952C63.9809 57.1417 59.7235 52.9357 59.6589 50.8557C59.6483 50.5536 59.7289 50.2943 59.9173 50.0925C60.288 49.6946 60.7888 49.6301 61.3323 49.7568C62.923 50.1278 64.8709 52.1458 64.9399 52.2173C64.9194 52.1713 64.581 51.4303 64.6859 50.7469C64.7428 50.3906 64.9186 50.0499 65.3234 49.8297C65.7029 49.624 66.5195 49.9611 67.463 50.52C69.5175 51.741 72.1685 54.0178 72.1685 54.0178C72.1685 54.0178 72.0071 53.6163 72.0827 53.1927C72.1383 52.8952 72.3114 52.5848 72.7422 52.3956C72.9363 52.3103 73.1591 52.3054 73.4063 52.3709C74.489 52.6547 76.0406 54.2594 77.7433 56.2133C79.8368 58.6128 81.2708 62.3412 82.3058 65.0202C82.488 65.4922 82.7521 66.1784 83.0634 66.9877C84.5172 70.7585 87 77.2033 87 77.2033Z" fill="#EEBAA4"/>
</g>
<path fill-rule="evenodd" clip-rule="evenodd" d="M59.9991 72.5768C60.0067 72.7238 59.9663 72.8775 59.8691 73C58.1381 71.4455 56.4606 69.6177 57.1645 69C57.2216 69.0021 57.288 69.0186 57.3627 69.0517C57.9306 69.3008 58.3785 69.9081 58.7084 70.3285C59.1166 70.8493 59.475 71.3936 59.7786 71.9559C59.8864 72.1558 59.989 72.3605 59.9991 72.5768Z" fill="#F7DFD5"/>
<path fill-rule="evenodd" clip-rule="evenodd" d="M57.992 57.7951C58.0206 58.1015 57.9745 58.4338 57.8225 58.6686C57.613 58.9931 57.2415 59.0652 56.9316 58.946C56.6228 58.8245 56.3638 58.543 56.1293 58.2507C55.8734 57.9329 55.3016 57.0908 55 56.3057C55.009 55.9494 55.0915 55.652 55.2612 55.4281C55.6876 54.8665 56.2319 54.8949 56.8449 55.2962L56.86 55.3112C57.2501 55.7418 57.5315 56.3211 57.7606 56.9221C57.8664 57.1982 57.9618 57.4869 57.992 57.7951Z" fill="#F7DFD5"/>
<path fill-rule="evenodd" clip-rule="evenodd" d="M63.2285 52.991C62.8342 53.0412 62.4496 52.8733 62.1175 52.691C61.3325 52.2591 60.5003 51.6632 60.0009 50.9784C59.9902 50.723 60.0717 50.5038 60.2623 50.3332C60.6373 49.9968 61.1439 49.9424 61.6937 50.0495L61.7254 50.0605C62.1163 50.2219 62.4467 50.4687 62.757 50.7247C63.0766 50.9876 63.3818 51.2634 63.6553 51.5612C63.7962 51.7166 63.9293 51.8816 63.9811 52.0724C64.0892 52.4788 63.7199 52.9287 63.2285 52.991Z" fill="#F7DFD5"/>
<path fill-rule="evenodd" clip-rule="evenodd" d="M68.9853 52.4565C68.9091 52.7825 68.5223 52.9914 68.1545 52.9998C67.7864 53.0065 67.4366 52.8565 67.119 52.6893C66.5104 52.3673 65.9544 51.9626 65.4746 51.4942C65.2908 51.3158 65.1159 51.1202 65 50.9C65.0578 50.5721 65.2362 50.2586 65.647 50.056C66.0321 49.8667 66.8607 50.1769 67.8182 50.6911C67.9341 50.8021 68.045 50.9199 68.1523 51.0364C68.3206 51.2195 68.4817 51.4064 68.6398 51.5968C68.8474 51.8484 69.058 52.1486 68.9853 52.4565Z" fill="#F7DFD5"/>
<path fill-rule="evenodd" clip-rule="evenodd" d="M74.9963 54.2633C75.0172 54.491 74.9499 54.742 74.7851 54.8811C74.518 55.1077 74.1324 54.9705 73.8342 54.801C73.5545 54.643 73.2834 54.4627 73.0375 54.2465C72.813 54.0513 72.6107 53.8266 72.4085 53.6036C72.2664 53.4452 72.1041 53.2124 72 52.9617C72.0555 52.6314 72.2277 52.2869 72.6567 52.0772C72.85 51.9824 73.0718 51.9769 73.318 52.0497C73.6324 52.263 73.9176 52.5696 74.134 52.8166C74.3584 53.0726 74.5814 53.3328 74.7599 53.6289C74.8764 53.8212 74.9736 54.0335 74.9963 54.2633Z" fill="#F7DFD5"/>
<path fill-rule="evenodd" clip-rule="evenodd" d="M79.9083 64C79.8773 64 79.8472 63.9854 79.8298 63.9588C79.5341 63.5056 79.2733 63.0569 78.9978 62.6043L78.1831 61.2488C77.6387 60.346 77.0979 59.4408 76.5363 58.5487C76.3913 58.3289 76.2613 58.0976 76.0868 57.905C75.9095 57.7093 75.7217 57.5185 75.5314 57.3307C75.1506 56.9545 74.762 56.5846 74.3707 56.2174C73.588 55.4828 72.7966 54.7558 72.0005 54.0338L72 54.0026C72.0118 54.0121 72.0178 54.0169 72.0178 54.0169C72.0178 54.0169 72.0153 54.0112 72.0113 54.0005L72.0352 54C72.8394 54.7149 73.6385 55.4346 74.4297 56.1623C74.8252 56.5262 75.218 56.8926 75.604 57.2663C75.7972 57.453 75.9874 57.6423 76.1704 57.8405C76.3569 58.0433 76.4885 58.2736 76.6366 58.4928C77.2093 59.3819 77.7598 60.2815 78.314 61.1795C78.8689 62.0736 79.4136 62.9875 79.9813 63.8617L79.9868 63.8699C80.013 63.9106 79.9991 63.9631 79.9558 63.9875C79.941 63.9961 79.9245 64 79.9083 64Z" fill="#956550"/>
<path fill-rule="evenodd" clip-rule="evenodd" d="M72.8298 61.9588C72.8472 61.9854 72.9028 61.8205 72.8298 61.9588C72.5341 61.5056 72.2733 61.0569 71.9978 60.6043L71.1831 59.2488C70.6387 58.346 70.0979 57.4408 69.5363 56.5487C69.3913 56.3289 69.2613 56.0976 69.0868 55.905C68.9095 55.7093 68.7217 55.5185 68.5314 55.3307C68.1506 54.9545 67.762 54.5846 67.3707 54.2174C66.588 53.4828 65.7966 52.7558 65.0005 52.0338L65 52.0026C65.0118 52.0121 65.0178 52.0169 65.0178 52.0169C65.0178 52.0169 65.0153 52.0112 65.0113 52.0005L65.0352 52C65.8394 52.7149 66.6385 53.4346 67.4297 54.1623C67.8252 54.5262 68.218 54.8926 68.604 55.2663C68.7972 55.453 68.9874 55.6423 69.1704 55.8405C69.3569 56.0433 69.4885 56.2736 69.6366 56.4928C70.2093 57.3819 70.7598 58.2815 71.314 59.1795C71.8689 60.0736 72.4136 60.9875 72.9813 61.8617L72.9868 61.8699C73.013 61.9106 75.5433 65.4756 75.5 65.5C75.4852 65.5085 72.8298 61.9588 72.8298 61.9588Z" fill="#956550"/>
<path d="M29.3882 19.4842L31.0644 20.588L32.8637 17" stroke="#34BBA8" stroke-width="1.2" stroke-linecap="round" stroke-linejoin="round"/>
<path d="M31.3882 26.4842L33.0644 27.588L34.8637 24" stroke="#34BBA8" stroke-width="1.2" stroke-linecap="round" stroke-linejoin="round"/>
<rect x="37" y="16.5443" width="21.4216" height="0.856866" rx="0.428433" transform="rotate(-15 37 16.5443)" fill="#B4B4B4" fill-opacity="0.28"/>
<rect x="38.5524" y="23.338" width="21.4216" height="0.856866" rx="0.428433" transform="rotate(-15 38.5524 23.338)" fill="#B4B4B4" fill-opacity="0.28"/>
<rect x="40.1048" y="30.1317" width="21.4216" height="0.856866" rx="0.428433" transform="rotate(-15 40.1048 30.1317)" fill="#B4B4B4" fill-opacity="0.28"/>
<rect x="42" y="36.6289" width="21.4216" height="0.856866" rx="0.428433" transform="rotate(-15 42 36.6289)" fill="#B4B4B4" fill-opacity="0.28"/>
</svg>
