<svg width="328" height="306" viewBox="0 0 328 306" fill="none" xmlns="http://www.w3.org/2000/svg">
<mask id="mask0_2693_4538" style="mask-type:alpha" maskUnits="userSpaceOnUse" x="0" y="0" width="328" height="306">
<rect width="328" height="306" fill="#C4C4C4"/>
</mask>
<g mask="url(#mask0_2693_4538)">
<path d="M210.869 24.1294L326.04 19.0738C326.04 19.0738 290.34 6.03246 273.693 8.82594C257.046 11.6194 287.255 -6.50788 252.234 -4.29131C228.835 -2.81866 234.636 13.9119 234.636 13.9119C234.636 13.9119 209.297 5.911 202.565 15.5212C196.298 24.4786 210.869 24.1294 210.869 24.1294Z" fill="#DFECF5"/>
<path d="M1.23461 163.54C1.23461 163.54 -15.547 161.733 -24.6927 161.733C-33.8383 161.733 -30.3814 146.831 -23.8612 147.073C-17.3411 147.315 -17.3411 147.315 -17.3411 147.315C-17.3411 147.315 -20.1198 136.497 -10.274 137.223C-0.42823 137.949 -1.40188 139.202 -1.40188 139.202C-1.40188 139.202 -7.36405 127.659 -2.09107 115.034C3.17096 102.409 19.1102 92.4884 19.1102 92.4884L40.5959 69.7723L55.7038 84.5605L91.3347 99.8896L93.8289 60.2076L136.111 53.5322L168.69 63.4527L195.12 73.8999L196.51 107.22L176.26 123.204C176.26 123.204 126.769 129.737 123.826 132.654C120.883 135.572 91.0612 163.953 83.1298 164.85C75.1985 165.747 19.1321 171.155 17.9178 171.155C16.6925 171.155 1.23461 163.54 1.23461 163.54Z" fill="#5E93BD"/>
<path d="M50.4002 169.684C50.4002 169.684 44.4775 165.246 45.143 157.223C45.8001 149.2 54.0935 151.759 54.0935 151.759C54.0935 151.759 49.3604 144.589 54.0935 138.942C58.8266 133.305 70.9381 134.665 70.9381 134.665C70.9381 134.665 69.6155 126.47 72.7765 123.392C75.9374 120.315 86.5849 120.487 86.5849 120.487C86.5849 120.487 91.5842 107.162 100.659 108.361C109.735 109.56 110.533 116.222 110.533 116.222C110.533 116.222 119.484 110.758 127.636 121.686C135.788 132.614 123.552 136.404 123.552 136.404L107.364 155.69L76.4532 169.684H50.4002Z" fill="#49698D"/>
<path d="M-13.1797 180.281C-13.1797 180.281 -19.1023 175.843 -18.4369 167.82C-17.7797 159.797 -9.48634 162.356 -9.48634 162.356C-9.48634 162.356 -14.2195 155.186 -9.48634 149.538C-4.75321 143.902 7.35827 145.262 7.35827 145.262C7.35827 145.262 6.03565 137.066 9.19662 133.989C12.3576 130.911 23.005 131.084 23.005 131.084C23.005 131.084 28.0044 117.759 37.0797 118.958C46.1549 120.156 46.9535 126.819 46.9535 126.819C46.9535 126.819 55.904 121.355 64.056 132.283C72.2079 143.21 59.9717 147.001 59.9717 147.001L43.7842 166.286L12.8733 180.281H-13.1797Z" fill="#49698D"/>
<path d="M102.523 146.468C102.523 146.468 110.55 134.687 121.738 134.687C132.918 134.687 135.164 139.989 135.813 137.927C136.462 135.875 130.556 133.316 131.213 122.723C131.87 112.141 129.508 94.0213 143.715 94.8852C157.923 95.7382 175.292 89.5833 175.292 89.5833L182.138 93.1682V142.538L102.523 146.468Z" fill="#425179"/>
<path d="M334.637 181.195C333.639 181.195 287.697 176.779 281.192 176.034C274.687 175.299 250.248 152.094 247.844 149.708C245.44 147.321 204.871 141.976 204.871 141.976L188.276 128.91L189.416 101.666L211.077 93.1251L237.779 85.0156L272.433 90.4687L274.479 122.917L303.676 110.381L316.054 98.2866L333.664 116.859C333.664 116.859 346.724 124.969 351.041 135.292C355.358 145.615 350.475 155.053 350.475 155.053C350.475 155.053 349.685 154.027 357.746 153.433C365.806 152.839 363.535 161.683 363.535 161.683C363.535 161.683 363.535 161.683 368.876 161.488C374.216 161.294 377.052 173.485 369.558 173.485C362.063 173.485 348.313 174.965 348.313 174.965C348.313 174.965 335.635 181.184 334.637 181.195Z" fill="#5E93BD"/>
<path d="M279.329 176.12L260.619 170.095L246.014 161.035L228.57 140.248C228.57 140.248 215.386 136.167 224.17 124.386C232.963 112.594 242.604 118.49 242.604 118.49C242.604 118.49 243.46 111.309 253.243 110.024C263.025 108.739 268.415 123.09 268.415 123.09C268.415 123.09 279.895 122.907 283.305 126.222C286.707 129.537 285.285 138.37 285.285 138.37C285.285 138.37 298.336 136.89 303.444 142.97C308.543 149.049 303.444 156.78 303.444 156.78C303.444 156.78 312.378 154.027 313.085 162.676C313.792 171.326 307.412 176.109 307.412 176.109H279.329V176.12Z" fill="#5E93BD"/>
<path d="M169.56 148.671V95.4573L176.938 91.5916C176.938 91.5916 195.663 98.2217 210.977 97.3038C226.291 96.386 223.737 115.898 224.453 127.312C225.168 138.726 218.788 141.479 219.495 143.693C220.202 145.906 222.614 140.194 234.668 140.194C246.729 140.194 255.372 152.893 255.372 152.893L169.56 148.671Z" fill="#2169A3"/>
<path d="M208.962 29.4266C204.424 30.7644 204.542 13.7525 193.01 14.434C181.477 15.0903 186.573 20.8197 184.019 21.9555C181.466 23.0913 179.481 17.4376 177.229 19.7597C174.965 22.0944 178.366 27.7482 174.675 26.7638C170.996 25.7542 167.584 15.3932 158.809 14.4088C150.022 13.4244 148.52 18.4346 141.622 18.0938C134.735 17.7657 139.831 23.7602 133.598 27.7608C127.365 31.7613 126.228 23.7602 123.395 25.4261C120.563 27.0919 122.838 33.4146 119.147 33.0864C115.457 32.7583 120.284 21.0848 113.483 16.7561C106.681 12.4274 106.392 15.797 101.864 14.2826C97.3265 12.7682 101.006 8.42689 95.0736 9.09575C89.1195 9.75199 94.5157 11.7586 86.0084 14.434C77.5011 17.0969 77.7908 11.1023 73.8214 14.434C69.852 17.7657 71.2681 24.7698 68.7256 27.7608C66.1723 30.7643 60.7976 26.7512 60.7976 29.7547C60.7976 32.7583 86.2981 36.09 86.2981 36.09L108.108 50.4263L122.848 54.7045L136.173 45.0881L145.806 45.7443L161.673 44.7347L173.86 44.0785L185.478 35.0804L193.052 42.4126L209.005 43.7504L208.962 29.4266Z" fill="#91C6AA"/>
<path d="M61.0554 31.7613C60.7765 26.423 65.3037 26.7637 72.6738 28.7577C80.044 30.7517 76.9221 22.4224 85.4187 22.7632C93.926 23.0913 98.7429 24.7445 99.3007 27.2685C99.8586 29.7925 97.8846 34.7774 106.392 36.1025C114.899 37.4403 116.594 42.4378 117.442 47.0946C118.3 51.764 123.106 51.4233 123.106 44.4318C123.106 37.4403 123.964 32.5311 129.897 36.4811C135.851 40.4312 136.602 30.7643 141.612 31.0924C146.611 31.4205 146.01 41.5292 152.115 36.4811C158.23 31.4331 163.047 25.7541 166.158 32.7582C169.269 39.7624 171.543 34.8532 174.944 36.4811C178.345 38.0965 182.035 44.1036 177.207 46.0976C172.391 48.0916 159.356 54.7045 159.356 54.7045L134.424 66.0877C134.424 66.0877 122.527 64.75 119.126 63.0842C115.725 61.4183 106.939 66.0877 106.939 66.0877C106.939 66.0877 96.1682 58.7555 95.0417 58.7555C93.9045 58.7555 82.8547 55.651 81.7175 54.7045C80.5803 53.758 71.7941 39.7624 71.7941 39.7624C71.7941 39.7624 68.1144 37.4276 64.7029 35.4337C61.3129 33.4397 61.0554 31.7613 61.0554 31.7613Z" fill="#7CB797"/>
<path d="M59.9176 47.0946C62.1812 37.7684 74.9368 36.7588 82.3069 40.4312C89.6771 44.0911 84.5706 49.4293 95.9101 52.761C107.239 56.0927 100.158 62.0872 118.01 59.4244C135.861 56.7616 133.029 66.4285 133.029 66.4285L114.609 81.093L101.285 87.0875L87.6817 72.7511C87.6817 72.7511 79.7537 78.7456 78.8955 78.7456C78.0372 78.7456 59.9069 70.7572 59.9069 70.7572L49.9835 68.4225L41.1972 70.4164L31.8532 76.0828L24.2041 74.0888C24.2041 74.0888 25.6202 63.1094 32.7114 62.7687C39.8026 62.4279 36.1122 53.1017 43.7612 53.1017C51.4103 53.1017 49.1467 60.434 54.2425 58.0993C59.349 55.7646 59.9176 47.0946 59.9176 47.0946Z" fill="#6EA387"/>
<path d="M289.776 67.1981C285.238 68.5358 285.356 51.524 273.823 52.2055C262.291 52.8618 267.387 58.5912 264.833 59.727C262.28 60.8628 260.295 55.2091 258.043 57.5312C255.779 59.8659 259.18 65.5196 255.489 64.5353C251.81 63.5257 248.398 53.1646 239.623 52.1802C230.836 51.1959 229.334 56.2061 222.436 55.8653C215.549 55.5372 220.645 61.5317 214.412 65.5322C208.179 69.5328 207.042 61.5317 204.209 63.1975C201.377 64.8634 203.652 71.186 199.961 70.8579C196.271 70.5298 201.098 58.8563 194.297 54.5276C187.495 50.1989 187.206 53.5685 182.678 52.054C178.151 50.5396 181.82 46.1984 175.888 46.8672C169.933 47.5235 175.33 49.5301 166.822 52.2055C158.315 54.8683 158.605 48.8738 154.635 52.2055C150.666 55.5372 152.082 62.5413 149.54 65.5322C146.986 68.5358 141.612 64.5226 141.612 67.5262C141.612 70.5298 167.112 73.8615 167.112 73.8615L188.922 88.1978L203.662 92.476L216.987 82.8596L226.62 83.5158L242.487 82.5062L254.674 81.8499L266.292 72.8519L273.866 80.1841L289.819 81.5218L289.776 67.1981Z" fill="#91C6AA"/>
<path d="M141.869 69.5454C141.59 64.2072 146.117 64.5479 153.488 66.5419C160.858 68.5358 157.736 60.2066 166.232 60.5474C174.74 60.8755 179.557 62.5287 180.114 65.0527C180.672 67.5767 178.698 72.5616 187.206 73.8867C195.713 75.2244 197.408 80.222 198.255 84.8788C199.114 89.5482 203.92 89.2074 203.92 82.2159C203.92 75.2244 204.778 70.3153 210.711 74.2653C216.665 78.2154 217.416 68.5485 222.426 68.8766C227.425 69.2047 226.824 79.3133 232.928 74.2653C239.043 69.2173 243.86 63.5383 246.971 70.5424C250.082 77.5465 252.357 72.6373 255.758 74.2653C259.158 75.8807 262.849 81.8878 258.021 83.8818C253.204 85.8758 240.17 92.4887 240.17 92.4887L215.238 103.872C215.238 103.872 203.341 102.534 199.94 100.868C196.539 99.2025 187.753 103.872 187.753 103.872C187.753 103.872 176.982 96.5397 175.855 96.5397C174.718 96.5397 163.668 93.4352 162.531 92.4887C161.394 91.5422 152.608 77.5465 152.608 77.5465C152.608 77.5465 148.928 75.2119 145.517 73.2179C142.127 71.2239 141.869 69.5454 141.869 69.5454Z" fill="#7CB797"/>
<path d="M140.732 84.8661C142.996 75.5399 155.751 74.5303 163.121 78.2027C170.492 81.8625 165.385 87.2008 176.725 90.5325C188.053 93.8642 180.973 99.8587 198.824 97.1959C216.676 94.5331 213.843 104.2 213.843 104.2L195.423 118.864L182.099 124.859L168.496 110.523C168.496 110.523 160.568 116.517 159.71 116.517C158.852 116.517 140.721 108.529 140.721 108.529L130.798 106.194L122.012 108.188L112.668 113.854L105.019 111.86C105.019 111.86 106.435 100.881 113.526 100.54C120.617 100.199 116.927 90.8732 124.576 90.8732C132.225 90.8732 129.961 98.2055 135.057 95.8708C140.163 93.5487 140.732 84.8661 140.732 84.8661Z" fill="#6EA387"/>
<path d="M179.535 36.0773V50.4137L195.488 49.076L203.062 41.7437L214.68 50.7418L226.867 51.398L242.734 52.4076L252.368 51.7514L265.692 61.3678L280.432 57.0897L302.242 42.7533C302.242 42.7533 327.743 39.4216 327.743 36.4181C327.743 33.4145 322.368 37.4277 319.814 34.4241C317.272 31.4331 318.688 24.429 314.719 21.0974C310.749 17.7657 311.039 23.7602 302.532 21.0974C294.024 18.4219 299.421 16.4279 293.467 15.7591C287.523 15.0902 291.203 19.4189 286.676 20.9459C282.138 22.4603 281.859 19.0908 275.057 23.4194C268.256 27.7481 273.073 39.4216 269.393 39.7497C265.702 40.0779 267.977 33.7552 265.145 32.0894C262.312 30.4235 261.175 38.412 254.942 34.4241C248.709 30.4235 253.805 24.429 246.918 24.7572C240.03 25.0853 238.518 20.0877 229.731 21.0721C220.956 22.0564 217.544 32.4175 213.865 33.4271C210.174 34.4241 213.575 28.7577 211.311 26.423C209.048 24.0883 207.074 29.7547 204.521 28.6189C201.967 27.4831 207.063 21.7536 195.531 21.0974C183.955 20.4033 184.073 37.415 179.535 36.0773Z" fill="#91C6AA"/>
<path d="M323.773 42.097C320.362 44.091 316.682 46.4257 316.682 46.4257C316.682 46.4257 307.896 60.4213 306.759 61.3678C305.621 62.3143 294.571 65.4188 293.434 65.4188C292.297 65.4188 281.537 72.751 281.537 72.751C281.537 72.751 272.751 68.0817 269.35 69.7475C265.949 71.4133 254.052 72.751 254.052 72.751L229.12 61.3678C229.12 61.3678 216.085 54.7549 211.269 52.7609C206.441 50.767 210.131 44.7598 213.532 43.1445C216.933 41.5291 219.197 46.4257 222.318 39.4216C225.43 32.4175 230.246 38.0965 236.361 43.1445C242.466 48.1925 241.865 38.0839 246.864 37.7557C251.874 37.4276 252.636 47.0945 258.579 43.1445C264.522 39.1944 265.37 44.1036 265.37 51.0951C265.37 58.0866 270.187 58.4273 271.034 53.7579C271.882 49.1011 273.577 44.091 282.084 42.7659C290.591 41.4282 288.607 36.4432 289.175 33.9319C289.733 31.4205 294.55 29.7673 303.057 29.4265C311.554 29.0858 308.432 37.415 315.802 35.421C323.172 33.4271 327.7 33.0863 327.421 38.4246C327.442 38.4119 327.185 40.0904 323.773 42.097Z" fill="#7CB797"/>
<path d="M334.255 64.7497C339.351 67.0844 337.087 59.7521 344.736 59.7521C352.385 59.7521 348.695 69.0784 355.786 69.4191C362.877 69.7598 364.293 80.7393 364.293 80.7393L356.644 82.7332L347.3 77.0668L338.514 75.0729L328.591 77.4076C328.591 77.4076 310.46 85.3961 309.602 85.3961C308.744 85.3961 300.816 79.4016 300.816 79.4016L287.213 93.7379L273.889 87.7434L255.479 73.0789C255.479 73.0789 252.647 63.412 270.498 66.0748C288.35 68.7376 281.269 62.7431 292.598 59.4114C303.938 56.0797 298.831 50.7415 306.201 47.0816C313.571 43.4218 326.327 44.4188 328.591 53.745C328.58 53.745 329.159 62.415 334.255 64.7497Z" fill="#6EA387"/>
<path d="M67.5672 82.1279C67.0523 68.7759 73.7573 66.4034 89.7635 70.2146C105.77 74.0259 106.285 89.7504 113.515 78.3167C120.746 66.8829 112.485 58.7809 130.551 57.3422C148.628 55.9161 149.143 58.2887 152.748 47.8014C156.363 37.3142 142.417 24.7825 152.748 27.2308C163.079 29.6917 164.623 27.7735 178.044 24.9213C191.465 22.0692 191.465 29.6791 194.565 34.4621C197.666 39.2198 197.151 38.7529 203.856 33.5156C210.561 28.2783 216.762 23.4953 214.702 34.4621C212.642 45.4289 209.542 55.4366 223.477 50.6662C237.413 45.9084 236.394 38.2733 265.306 39.2198C294.228 40.1663 286.483 52.7107 300.419 53.3417C314.354 53.9979 311.265 36.3551 330.886 37.3142C350.508 38.2607 355.153 45.4163 356.183 58.7556C357.213 72.1076 369.099 67.8168 369.099 74.9597C369.099 82.1027 349.478 86.4061 344.832 101.651C340.187 116.909 323.655 86.873 317.465 101.651C311.275 116.429 327.775 121.818 314.88 134.059C301.985 146.301 299.904 127.863 285.957 131.207C272.021 134.539 267.366 138.35 262.72 125.97C258.075 113.59 251.874 116.909 238.969 118.827C226.063 120.733 220.377 117.401 211.086 115.016C201.796 112.631 204.896 104.049 193.01 99.7581C181.123 95.4673 172.348 98.8116 174.933 108.819C177.519 118.84 181.123 129.794 172.348 132.646C163.572 135.498 160.472 125.983 151.171 125.983C141.88 125.983 145.495 136.47 135.164 135.523C124.833 134.577 131.034 122.171 135.164 115.028C139.295 107.885 142.91 102.635 132.064 106.447C121.218 110.258 117.613 110.738 115.028 104.062C112.442 97.3982 106.767 100.73 103.667 105.008C100.567 109.299 98.0455 101.676 93.6256 100.717C89.2056 99.7581 86.116 93.5743 80.4194 92.1356C74.7872 90.7095 67.5672 82.1279 67.5672 82.1279Z" fill="#84C3BA"/>
<path d="M73.3822 88.324C72.8672 74.972 81.2994 63.6771 95.6535 71.2491C108.023 77.7736 111.177 100.616 113.419 78.6318C116.369 49.6562 120.585 77.8493 138.662 76.4107C156.739 74.972 142.996 100.49 146.612 90.0025C150.227 79.5152 153.37 74.7701 163.701 77.2184C174.032 79.6666 171.061 70.82 183.14 76.9407C198.16 84.5632 185.34 82.5061 188.44 87.2765C191.54 92.0343 194.684 93.5992 201.399 88.3619C208.115 83.1245 186.852 82.7207 189.03 71.7791C191.68 58.4524 196.883 57.5185 210.819 52.7481C224.754 47.9777 213.222 42.4502 232.607 62.2636C237.682 67.4505 249.096 58.73 257.646 63.0713C262.495 65.5322 261.712 53.3034 267.076 53.5558C281.012 54.2121 283.125 89.3588 296.235 75.8428C308.905 62.7937 315.974 59.8027 336.293 72.8518C348.942 80.9665 355.625 52.5714 356.119 59.0581C357.149 72.4101 369.035 68.1193 369.035 75.2623C369.035 82.4052 349.414 86.7086 344.768 101.954C340.123 117.211 323.591 87.1756 317.401 101.954C311.211 116.732 327.711 122.12 314.816 134.362C301.921 146.603 299.84 128.165 285.893 131.51C271.958 134.841 267.302 138.653 262.656 126.272C258.011 113.892 251.81 117.211 238.905 119.129C225.999 121.048 220.313 117.703 211.022 115.318C201.732 112.933 204.832 104.351 192.946 100.061C181.059 95.7698 172.284 99.1141 174.869 109.122C177.455 119.142 181.059 130.096 172.284 132.948C163.508 135.801 160.408 126.285 151.107 126.285C141.816 126.285 145.431 136.772 135.1 135.826C124.769 134.879 130.97 122.474 135.1 115.331C139.231 108.188 142.846 102.938 132 106.749C121.154 110.56 117.549 111.04 114.964 104.364C112.378 97.7006 106.703 101.032 103.603 105.311C100.503 109.601 97.9815 101.979 93.5615 101.02C89.1416 100.061 86.0519 93.8768 80.3554 92.4381C74.6803 91.0373 73.3822 88.324 73.3822 88.324Z" fill="#9BD2CC"/>
<path d="M158.091 64.4597C158.38 59.0205 171.05 49.77 171.05 49.77C175.18 40.7972 188.429 32.9097 188.719 42.9805C189.009 53.0512 183.709 61.1912 191.369 62.0115C199.029 62.8192 203.738 71.527 195.499 70.164C187.249 68.801 184.524 71.2493 178.967 72.6123C173.41 73.9753 171.061 76.9662 171.651 68.536C172.241 60.1058 163.991 66.6304 161.051 67.173C158.091 67.7283 158.091 64.4597 158.091 64.4597Z" fill="#9BD2CC"/>
<path d="M151.321 50.8679C151.321 50.8679 155.451 52.4959 154.261 59.0205C153.091 65.545 154.55 65.545 148.961 62.5541C143.372 59.5631 139.241 58.7554 133.641 60.9261C128.041 63.0967 123.621 67.7661 122.742 64.4849C121.862 61.1911 129.811 58.8185 132.172 58.2506C134.532 57.6575 151.321 50.8679 151.321 50.8679Z" fill="#9BD2CC"/>
<path d="M199.844 108.504C200.209 103.064 208.47 100.881 208.47 100.881C208.47 100.881 201.689 91.1007 213.179 87.8321C224.669 84.5635 223.489 90.2804 233.509 86.4691C243.529 82.6579 247.949 77.7613 247.648 86.4691C247.359 95.177 239.109 100.061 253.828 100.061C268.546 100.061 275.326 101.424 269.147 104.68C262.968 107.948 250.008 117.729 267.667 119.37C285.336 120.998 294.176 119.37 291.815 125.351C289.455 131.333 300.645 137.05 288.576 134.589C276.496 132.141 277.987 134.249 273.782 134.286C269.587 134.324 265.886 135.687 264.427 128.885C262.946 122.095 254.986 118.272 242.928 118.827C230.859 119.37 217.009 123.723 206.41 118.284C195.811 112.845 199.844 108.504 199.844 108.504Z" fill="#76ADA7"/>
<path d="M105.674 104.705C105.674 104.705 107.154 99.266 100.084 97.638C93.0146 96.01 99.4944 83.2259 86.2453 83.5035C72.9962 83.7812 67.6965 82.1406 67.6965 87.8575C67.6965 93.5743 67.9862 93.8393 72.4061 92.754C76.8261 91.6687 80.656 97.6506 81.836 99.8212C83.0054 101.992 83.8958 101.184 92.4353 102.535C100.975 103.897 95.9648 108.857 102.155 108.415C108.323 107.961 105.674 104.705 105.674 104.705Z" fill="#4E8B7F"/>
<path d="M238.217 96.401C237.938 87.0748 241.618 85.409 250.404 88.0592C259.19 90.722 259.469 101.727 263.439 93.7256C267.408 85.7371 262.881 80.0581 272.783 79.0611C282.706 78.0515 282.985 79.7174 284.97 72.3978C286.954 65.0781 279.305 56.2946 284.97 58.0235C290.634 59.7399 291.482 58.4147 298.852 56.4082C306.222 54.4142 306.222 59.7399 307.917 63.0715C309.612 66.4032 309.333 66.0751 313.013 62.4153C316.692 58.7555 320.104 55.4112 318.967 63.0715C317.83 70.7319 316.135 77.736 323.784 74.4043C331.433 71.0726 330.875 65.7344 346.731 66.4158C362.587 67.0973 358.349 75.843 365.998 76.2973C373.647 76.7517 371.952 64.4219 382.713 65.0781C393.483 65.7344 396.026 70.7445 396.595 80.0707C397.152 89.3969 403.686 86.406 403.686 91.4035C403.686 96.401 392.915 99.392 390.362 110.069C387.808 120.732 378.743 99.7327 375.342 110.069C371.942 120.404 381.007 124.178 373.926 132.734C366.846 141.29 365.709 128.405 358.06 130.74C350.411 133.075 347.857 135.738 345.315 127.08C342.761 118.41 339.361 120.745 332.28 122.083C325.2 123.421 322.078 121.073 316.982 119.42C311.886 117.754 313.581 111.76 307.059 108.756C300.547 105.752 295.73 108.1 297.135 115.091C298.551 122.095 300.536 129.756 295.719 131.75C290.902 133.744 289.207 127.08 284.101 127.08C278.994 127.08 280.99 134.413 275.315 133.744C269.65 133.087 273.051 124.418 275.315 119.407C277.578 114.41 279.563 110.737 273.619 113.413C267.665 116.076 265.692 116.416 264.275 111.747C262.859 107.078 259.737 109.412 258.042 112.403C256.347 115.407 254.953 110.069 252.539 109.4C250.114 108.743 248.409 104.402 245.298 103.405C242.176 102.408 238.217 96.401 238.217 96.401Z" fill="#84C3BA"/>
<path d="M241.415 100.742C241.136 91.4161 245.759 83.5159 253.634 88.8037C260.425 93.3722 262.152 109.349 263.385 93.9653C265.005 73.7102 267.312 93.4226 277.235 92.413C287.159 91.4034 279.617 109.261 281.591 101.916C283.565 94.5711 285.303 91.2646 290.967 92.9809C296.632 94.7099 295.001 88.5135 301.631 92.7916C309.87 98.1173 302.843 96.6912 304.538 100.023C306.233 103.355 307.96 104.453 311.651 100.793C315.33 97.133 303.669 96.8553 304.86 89.1949C306.319 79.8814 309.173 79.2251 316.822 75.8934C324.471 72.5618 318.141 68.6874 328.783 82.5568C331.573 86.1914 337.827 80.0959 342.515 83.1247C345.176 84.8537 344.747 76.2973 347.686 76.4613C355.335 76.9157 356.494 101.499 363.682 92.0471C370.633 82.9228 374.506 80.8279 385.663 89.9521C392.604 95.6311 396.263 75.7672 396.541 80.2978C397.099 89.624 403.633 86.6331 403.633 91.6306C403.633 96.6281 392.862 99.6191 390.308 110.296C387.755 120.96 378.69 99.9598 375.289 110.296C371.888 120.631 380.954 124.405 373.873 132.961C366.793 141.518 365.656 128.633 358.006 130.967C350.357 133.302 347.804 135.965 345.262 127.307C342.708 118.637 339.308 120.972 332.227 122.31C325.136 123.648 322.025 121.3 316.929 119.647C311.833 117.981 313.528 111.987 307.006 108.983C300.483 105.98 295.677 108.327 297.082 115.318C298.498 122.323 300.483 129.983 295.666 131.977C290.849 133.971 289.154 127.307 284.048 127.307C278.941 127.307 280.936 134.64 275.261 133.971C269.597 133.315 272.998 124.645 275.261 119.634C277.525 114.637 279.51 110.964 273.566 113.64C267.612 116.303 265.638 116.643 264.222 111.974C262.806 107.305 259.684 109.639 257.989 112.63C256.294 115.621 254.9 110.296 252.486 109.627C250.061 108.971 248.356 104.629 245.244 103.632C242.123 102.635 241.415 100.742 241.415 100.742Z" fill="#9BD2CC"/>
<path d="M287.888 84.0461C288.049 80.2475 295.001 73.786 295.001 73.786C297.264 67.5139 304.538 61.9989 304.699 69.0409C304.86 76.0702 301.952 81.7745 306.158 82.3424C310.363 82.9103 312.949 89.0058 308.421 88.0467C303.894 87.0875 302.403 88.8165 299.345 89.763C296.288 90.7095 295.011 92.8044 295.322 86.9109C295.644 81.0173 291.117 85.5731 289.508 85.9644C287.888 86.3303 287.888 84.0461 287.888 84.0461Z" fill="#9BD2CC"/>
<path d="M284.177 74.5557C284.177 74.5557 286.44 75.6915 285.786 80.2599C285.131 84.8284 285.947 84.8284 282.878 82.7208C279.81 80.6259 277.547 80.058 274.468 81.585C271.399 83.0994 268.975 86.368 268.492 84.0712C268.009 81.7743 272.376 80.1085 273.663 79.7046C274.961 79.3008 284.177 74.5557 284.177 74.5557Z" fill="#9BD2CC"/>
<path d="M310.792 114.851C310.996 111.053 315.523 109.526 315.523 109.526C315.523 109.526 311.801 102.686 318.109 100.401C324.406 98.1172 323.773 102.118 329.266 99.4549C334.759 96.7921 337.183 93.3721 337.022 99.4549C336.861 105.538 332.334 108.958 340.423 108.958C348.512 108.958 352.213 109.904 348.834 112.189C345.433 114.473 338.331 121.313 348.029 122.449C357.727 123.584 362.576 122.449 361.278 126.626C359.991 130.803 366.127 134.804 359.497 133.087C352.868 131.371 353.683 132.848 351.387 132.873C349.091 132.898 347.053 133.857 346.248 129.099C345.444 124.354 341.077 121.679 334.458 122.07C327.839 122.461 320.233 125.49 314.418 121.691C308.604 117.893 310.792 114.851 310.792 114.851Z" fill="#4E8B7F"/>
<path d="M259.126 112.189C259.126 112.189 259.931 108.39 256.058 107.242C252.174 106.106 255.736 97.1708 248.463 97.3475C241.189 97.5242 238.282 96.401 238.282 100.389C238.282 104.389 238.443 104.566 240.867 103.809C243.292 103.039 245.394 107.229 246.038 108.756C246.692 110.27 247.175 109.703 251.853 110.649C256.541 111.596 253.794 115.066 257.184 114.763C260.575 114.473 259.126 112.189 259.126 112.189Z" fill="#4E8B7F"/>
<path d="M239.805 91.3406C239.527 82.0144 243.206 80.3486 251.992 82.9988C260.779 85.6616 261.058 96.6662 265.027 88.6651C268.996 80.6767 264.469 74.9977 274.371 74.0007C284.294 72.9911 284.573 74.6569 286.558 67.3373C288.543 60.0177 280.894 51.2342 286.558 52.9631C292.222 54.6794 293.07 53.3543 300.44 51.3477C307.81 49.3538 307.81 54.6794 309.505 58.0111C311.2 61.3428 310.921 61.0147 314.601 57.3549C318.281 53.695 321.692 50.3508 320.555 58.0111C319.418 65.6715 317.723 72.6756 325.372 69.3439C333.021 66.0122 332.463 60.6739 348.319 61.3554C364.175 62.0369 359.938 70.7826 367.587 71.2369C375.236 71.6912 373.541 59.3614 384.301 60.0177C395.072 60.6739 397.625 65.6841 398.183 75.0103C398.741 84.3365 405.274 81.3455 405.274 86.3431C405.274 91.3406 394.503 94.3315 391.95 105.008C389.397 115.672 380.332 94.6723 376.931 105.008C373.53 115.344 382.595 119.117 375.515 127.674C368.434 136.23 367.297 123.345 359.648 125.68C351.999 128.014 349.446 130.677 346.903 122.02C344.35 113.35 340.949 115.685 333.869 117.022C326.777 118.36 323.666 116.013 318.57 114.36C313.475 112.694 315.17 106.699 308.647 103.696C302.135 100.692 297.318 103.039 298.724 110.031C300.14 117.035 302.124 124.695 297.308 126.689C292.491 128.683 290.796 122.02 285.689 122.02C280.583 122.02 282.578 129.352 276.903 128.683C271.239 128.027 274.639 119.357 276.903 114.347C279.167 109.349 281.151 105.677 275.208 108.352C269.254 111.015 267.28 111.356 265.864 106.687C264.448 102.017 261.326 104.352 259.631 107.343C257.936 110.346 256.541 105.008 254.127 104.339C251.703 103.683 249.997 99.3417 246.886 98.3447C243.764 97.3351 239.805 91.3406 239.805 91.3406Z" fill="#84C3BA"/>
<path d="M242.991 95.6819C242.713 86.3557 247.336 78.4555 255.211 83.7433C262.001 88.3118 263.729 104.289 264.962 88.9049C266.582 68.6497 268.889 88.3623 278.812 87.3526C288.736 86.343 281.194 104.2 283.168 96.8555C285.152 89.5107 286.88 86.2042 292.544 87.9206C298.208 89.6495 296.578 83.4531 303.208 87.7313C311.447 93.0569 304.42 91.6308 306.115 94.9625C307.81 98.2942 309.537 99.3921 313.228 95.7323C316.907 92.0725 305.246 91.7949 306.437 84.1345C307.896 74.821 310.75 74.1647 318.399 70.833C326.048 67.5013 319.718 63.627 330.36 77.4964C333.15 81.131 339.404 75.0355 344.092 78.0643C346.753 79.7932 346.324 71.2369 349.263 71.4009C356.912 71.8552 358.071 96.4391 365.258 86.9867C372.21 77.8624 376.083 75.7675 387.24 84.8917C394.181 90.5708 397.839 70.7068 398.118 75.2374C398.676 84.5636 405.21 81.5727 405.21 86.5702C405.21 91.5677 394.439 94.5587 391.885 105.235C389.332 115.899 380.267 94.8994 376.866 105.235C373.465 115.571 382.531 119.344 375.45 127.901C368.37 136.457 367.232 123.572 359.583 125.907C351.934 128.242 349.381 130.904 346.839 122.247C344.285 113.577 340.884 115.912 333.804 117.249C326.713 118.587 323.602 116.24 318.506 114.587C313.41 112.921 315.105 106.926 308.582 103.923C302.06 100.919 297.254 103.267 298.659 110.258C300.075 117.262 302.06 124.922 297.243 126.916C292.426 128.91 290.731 122.247 285.625 122.247C280.518 122.247 282.513 129.579 276.838 128.91C271.174 128.254 274.575 119.584 276.838 114.574C279.102 109.577 281.087 105.904 275.143 108.58C269.189 111.242 267.215 111.583 265.799 106.914C264.383 102.244 261.261 104.579 259.566 107.57C257.871 110.561 256.477 105.235 254.063 104.566C251.638 103.91 249.932 99.5688 246.821 98.5718C243.699 97.5749 242.991 95.6819 242.991 95.6819Z" fill="#9BD2CC"/>
<path d="M289.475 78.9856C289.636 75.187 296.588 68.7255 296.588 68.7255C298.852 62.4534 306.125 56.9384 306.286 63.9804C306.447 71.0098 303.54 76.714 307.745 77.2819C311.95 77.8498 314.536 83.9453 310.009 82.9862C305.482 82.027 303.99 83.756 300.933 84.7025C297.875 85.649 296.599 87.7439 296.91 81.8504C297.232 75.9568 292.704 80.5126 291.095 80.9039C289.475 81.2698 289.475 78.9856 289.475 78.9856Z" fill="#9BD2CC"/>
<path d="M285.753 69.4825C285.753 69.4825 288.017 70.6183 287.363 75.1868C286.708 79.7552 287.524 79.7552 284.455 77.6477C281.387 75.5528 279.124 74.9849 276.045 76.5119C272.976 78.0263 270.552 81.2949 270.069 78.998C269.586 76.7012 273.953 75.0354 275.24 74.6315C276.549 74.2403 285.753 69.4825 285.753 69.4825Z" fill="#9BD2CC"/>
<path d="M260.714 107.128C260.714 107.128 261.518 103.329 257.645 102.181C253.762 101.045 257.324 92.1102 250.05 92.2868C242.776 92.4635 239.869 91.3404 239.869 95.3283C239.869 99.3288 240.03 99.5055 242.455 98.7483C244.879 97.9785 246.982 102.168 247.625 103.695C248.28 105.21 248.763 104.642 253.44 105.588C258.128 106.535 255.382 110.005 258.772 109.702C262.162 109.412 260.714 107.128 260.714 107.128Z" fill="#76ADA7"/>
<path d="M-55.6762 93.0819C-55.9552 83.7557 -52.2755 82.0899 -43.4892 84.7401C-34.703 87.3903 -34.424 98.4076 -30.4547 90.4065C-26.4853 82.418 -31.0125 76.739 -21.1106 75.742C-11.1872 74.7324 -10.9083 76.3983 -8.92359 69.0786C-6.93891 61.759 -14.588 52.9755 -8.92359 54.7044C-3.2592 56.4207 -2.41169 55.0957 4.95845 53.0891C12.3286 51.0951 12.3286 56.4207 14.0236 59.7524C15.7186 63.0841 15.4397 62.756 19.1194 59.0962C22.7991 55.4364 26.2106 52.0921 25.0735 59.7524C23.9363 67.4128 22.2413 74.4169 29.8903 71.0852C37.5394 67.7535 36.9815 62.4152 52.8375 63.0967C68.6935 63.7782 64.4559 72.5239 72.105 72.9782C79.7541 73.4325 78.0591 61.1028 88.8192 61.759C99.5902 62.4153 102.143 67.4254 102.701 76.7516C103.259 86.0778 109.792 83.0868 109.792 88.0844C109.792 93.0819 99.0216 96.0729 96.4683 106.749C93.915 117.426 84.8499 96.4136 81.4491 106.749C78.0483 117.085 87.1135 120.859 80.033 129.415C72.9525 137.971 71.8154 125.086 64.1663 127.421C56.5172 129.756 53.964 132.419 51.4214 123.761C48.8682 115.091 45.4674 117.426 38.3869 118.764C31.2957 120.101 28.1846 117.754 23.0888 116.101C17.993 114.435 19.688 108.44 13.1654 105.437C6.65347 102.433 1.8366 104.781 3.24197 111.772C4.65807 118.776 6.64274 126.437 1.82587 128.431C-2.99101 130.425 -4.68603 123.761 -9.79256 123.761C-14.8991 123.761 -12.9037 131.093 -18.5788 130.425C-24.2432 129.768 -20.8424 121.098 -18.5788 116.088C-16.3152 111.091 -14.3305 107.418 -20.2738 110.094C-26.2279 112.757 -28.2018 113.097 -29.6179 108.428C-31.034 103.758 -34.1559 106.093 -35.8509 109.084C-37.5459 112.088 -38.9405 106.749 -41.3543 106.081C-43.7789 105.424 -45.4846 101.083 -48.5957 100.086C-51.7176 99.0764 -55.6762 93.0819 -55.6762 93.0819Z" fill="#84C3BA"/>
<path d="M-52.4895 97.4229C-52.7685 88.0967 -48.1447 80.1966 -40.2703 85.4844C-33.4795 90.0528 -31.7523 106.03 -30.5186 90.646C-28.8987 70.3908 -26.5921 90.1033 -16.6687 89.0937C-6.74532 88.0841 -14.2871 105.941 -12.3132 98.5966C-10.3285 91.2517 -8.60127 87.9453 -2.93688 89.6616C2.7275 91.3906 1.09684 85.1941 7.72674 89.4723C15.9659 94.798 8.93902 93.3719 10.634 96.7036C12.3291 100.035 14.0563 101.133 17.7467 97.4734C21.4264 93.8136 9.76508 93.536 10.9559 85.8756C12.4149 76.562 15.2685 75.9058 22.9176 72.5741C30.5667 69.2424 24.2372 65.3681 34.8793 79.2375C37.6686 82.8721 43.923 76.7766 48.6112 79.8054C51.2717 81.5343 50.8426 72.9779 53.7821 73.142C61.4311 73.5963 62.5897 98.1801 69.7775 88.7277C76.7292 79.6035 80.6021 77.5085 91.7592 86.6328C98.7002 92.3118 102.358 72.4479 102.637 76.9785C103.195 86.3047 109.729 83.3137 109.729 88.3113C109.729 93.3088 98.9577 96.2998 96.4044 106.976C93.8512 117.653 84.786 96.6405 81.3852 106.976C77.9844 117.312 87.0496 121.085 79.9691 129.642C72.8886 138.198 71.7515 125.313 64.1024 127.648C56.4533 129.983 53.9001 132.645 51.3575 123.988C48.8043 115.318 45.4035 117.653 38.323 118.991C31.2318 120.328 28.1207 117.981 23.0249 116.328C17.9291 114.662 19.6241 108.667 13.1015 105.664C6.57886 102.66 1.77271 105.008 3.17808 111.999C4.59418 119.003 6.57885 126.664 1.76197 128.657C-3.0549 130.651 -4.74992 123.988 -9.85645 123.988C-14.963 123.988 -12.9676 131.32 -18.6427 130.651C-24.3071 129.995 -20.9063 121.325 -18.6427 116.315C-16.3791 111.305 -14.3944 107.645 -20.3377 110.321C-26.2917 112.983 -28.2657 113.324 -29.6818 108.655C-31.0979 103.985 -34.2197 106.32 -35.9148 109.311C-37.6098 112.302 -39.0044 106.976 -41.4182 106.307C-43.8428 105.651 -45.5485 101.31 -48.6596 100.313C-51.7815 99.3159 -52.4895 97.4229 -52.4895 97.4229Z" fill="#9BD2CC"/>
<path d="M-6.00513 80.7267C-5.84421 76.9281 1.10754 70.4666 1.10754 70.4666C3.37115 64.1945 10.6447 58.6795 10.8057 65.7215C10.9666 72.7635 8.05929 78.4551 12.2647 79.023C16.47 79.5909 19.0555 85.6864 14.5283 84.7273C10.0011 83.7681 8.50987 85.4971 5.45238 86.4436C2.3949 87.3901 1.11827 89.485 1.42938 83.5915C1.75122 77.6979 -2.77599 82.2537 -4.38519 82.645C-6.00512 83.0109 -6.00513 80.7267 -6.00513 80.7267Z" fill="#9BD2CC"/>
<path d="M16.8995 111.532C17.1033 107.733 21.6305 106.206 21.6305 106.206C21.6305 106.206 17.9079 99.3663 24.216 97.0821C30.524 94.7979 29.8804 98.7984 35.3731 96.1356C40.8658 93.4728 43.2903 90.0528 43.1294 96.1356C42.9685 102.218 38.4413 105.638 46.5302 105.638C54.6191 105.638 58.3203 106.585 54.941 108.869C51.5402 111.153 44.4383 117.993 54.1364 119.129C63.8345 120.265 68.6835 119.129 67.3855 123.307C66.0874 127.484 72.2345 131.484 65.6046 129.768C58.9747 128.052 59.79 129.528 57.4942 129.553C55.1984 129.579 53.1601 130.538 52.3555 125.78C51.5509 121.022 47.1846 118.359 40.5654 118.751C33.9463 119.142 26.3401 122.171 20.5255 118.372C14.6895 114.573 16.8995 111.532 16.8995 111.532Z" fill="#76ADA7"/>
<path d="M423.791 118.12C419.113 118.133 422.696 101.664 411.368 99.0641C400.039 96.4518 403.815 103.443 401.101 103.834C398.387 104.226 397.625 98.1681 394.954 99.7835C392.283 101.399 394.428 107.86 391.049 105.854C387.68 103.834 386.489 92.8172 378.175 89.3845C369.85 85.9519 367.361 90.3816 360.742 88.1099C354.123 85.8383 357.846 93.1075 350.98 95.2276C344.114 97.3478 344.639 89.271 341.55 90.0913C338.46 90.9116 339.372 97.6885 335.864 96.3256C332.345 94.9626 339.415 84.9928 333.686 78.8721C327.957 72.7513 327.003 75.9442 322.915 73.193C318.828 70.4419 323.28 67.2617 317.38 66.2394C311.468 65.2046 316.285 68.6625 307.488 68.8518C298.691 69.0285 300.193 63.299 295.666 65.4191C291.139 67.5393 291.075 74.7327 287.996 76.916C284.906 79.1118 280.497 73.6979 279.885 76.6131C279.274 79.5283 303.347 89.9651 303.347 89.9651L321.596 110.031L335.027 118.348L349.918 112.769L359.133 116.126L374.742 119.622L386.704 122.424L399.824 116.972L405.682 126.222L420.894 132.015L423.791 118.12Z" fill="#91C6AA"/>
<path d="M279.735 78.6446C280.55 73.382 284.885 74.9848 291.633 79.0106C298.38 83.0364 297.05 74.0635 305.225 76.7894C313.41 79.5154 317.744 82.4811 317.787 85.0808C317.83 87.6805 314.88 91.9587 322.862 95.6564C330.843 99.354 331.476 104.692 331.348 109.45C331.23 114.22 335.971 115.255 337.398 108.466C338.825 101.676 340.659 97.1582 345.616 102.673C350.583 108.188 353.297 99.0133 358.092 100.742C362.877 102.471 360.238 112.113 367.19 108.945C374.152 105.765 379.988 101.626 381.587 109.299C383.185 116.972 386.393 112.857 389.354 115.394C392.326 117.918 394.675 124.783 389.59 125.364C384.505 125.944 370.505 128.683 370.505 128.683L343.985 132.696C343.985 132.696 332.699 128.039 329.749 125.465C326.788 122.89 317.305 124.947 317.305 124.947C317.305 124.947 308.347 114.788 307.242 114.473C306.137 114.157 296.052 108.024 295.141 106.775C294.229 105.538 288.554 89.46 288.554 89.46C288.554 89.46 285.453 86.1661 282.557 83.2635C279.649 80.3483 279.735 78.6446 279.735 78.6446Z" fill="#7CB797"/>
<path d="M275.508 93.2082C279.607 84.7906 292.19 87.4156 298.606 93.0568C305.01 98.6979 298.971 102.433 309.291 108.87C319.611 115.306 311.512 119.13 329.384 121.578C347.257 124.026 342.537 132.608 342.537 132.608L321.671 141.644L307.521 143.701L297.243 125.945C297.243 125.945 288.318 129.529 287.492 129.289C286.666 129.049 270.692 116.164 270.692 116.164L261.541 111.103L252.604 110.561L242.37 113.425L235.354 109.324C235.354 109.324 238.969 99.0639 245.921 100.742C252.872 102.408 251.188 92.3122 258.623 94.4702C266.046 96.6282 262.356 103.102 267.784 102.282C273.213 101.462 275.508 93.2082 275.508 93.2082Z" fill="#6EA387"/>
<path d="M293.723 147.539C293.039 134.455 212.902 134.504 161.168 133.494C109.435 132.484 48.1609 128.455 49.5274 139.531C50.8855 150.607 67.9078 145.568 68.591 154.636C69.2743 163.691 -45.7744 160.672 -45.0912 182.824C-44.408 204.963 67.9162 211.013 63.8251 221.078C59.7341 231.144 5.95082 239.177 5.27593 267.365C4.5927 295.554 78.7978 320.712 206.095 315.685C333.391 310.658 316.927 296.49 309.753 291.488C302.363 286.338 286.424 276.433 286.424 276.433C286.424 276.433 368.794 264.359 370.152 243.218C371.51 222.076 353.813 224.146 353.813 224.146C353.813 224.146 375.593 218.047 375.593 201.945C375.593 185.843 373.535 177.705 351.264 174.28C329.6 170.954 253.732 175.765 256.456 164.701C259.181 153.638 286.007 152.135 289.373 151.395C293.731 150.434 293.723 147.539 293.723 147.539Z" fill="#D8ECEA"/>
<path d="M19.0156 162.148C19.0156 162.148 138.58 187.463 182.722 180.323C226.864 173.182 246.077 172.187 246.077 172.187C246.077 172.187 238.092 157.516 278.192 153.67C318.292 149.824 279.083 134.938 241.664 135.597C221.421 135.954 137.598 132.571 86.6754 131.98C13.4049 131.119 24.089 145.043 42.3283 154.2C57.639 161.879 19.0156 162.148 19.0156 162.148Z" fill="#ABD4DA"/>
<path d="M87.5174 132.47C87.5174 132.47 82.935 137.809 123.868 139.83C164.81 141.851 188.927 138.039 207.955 138.479C226.983 138.929 257.97 135.444 257.97 135.444C257.97 135.444 189.879 132.946 152.576 132.47C114.87 131.295 87.5174 132.47 87.5174 132.47Z" fill="#78C4D2"/>
<path d="M18.02 125.204L11.0681 186.811H15.6998L18.02 177.353L19.5639 182.755C19.5639 182.755 24.4603 172.617 24.4603 173.839C24.4603 175.061 28.5803 179.519 28.5803 179.519L22.9164 151.549V115.468L18.02 125.204Z" fill="#78635E"/>
<path d="M131.254 91.4972L126.922 140.994H129.807L131.254 133.397L132.215 137.744C132.215 137.744 135.268 129.592 135.268 130.578C135.268 131.564 137.835 135.147 137.835 135.147L134.306 112.676V83.6783L131.254 91.4972Z" fill="#78635E"/>
<path d="M41.9991 108.872L40.8875 149.952C40.8875 149.952 44.4516 152.994 45.8808 151.994C47.31 150.994 49.2068 147.036 49.2068 147.036L45.0427 108.858L41.9991 108.872Z" fill="#78635E"/>
<path d="M216.468 94.3865L212.859 140.342C212.859 140.342 215.682 144.175 216.971 143.23C218.25 142.286 220.12 138.078 220.12 138.078L219.07 94.7337L216.468 94.3865Z" fill="#78635E"/>
<path d="M285.855 96.7062L283.799 144.939H285.855L287.407 96.7062H285.855Z" fill="#78635E"/>
<path d="M78.2231 94.6368L76.1675 142.87H78.2231L79.7758 94.6368H78.2231Z" fill="#78635E"/>
<path d="M317.659 103.428L313.909 182.325H317.659L320.491 103.428H317.659Z" fill="#78635E"/>
<path d="M267.072 141.828L265.934 115.441L263.384 131.218L263.437 141.87L267.072 143.328V141.828Z" fill="#78635E"/>
<path d="M277.668 149.16L277.88 108.872L274.527 132.662L274.033 148.883L277.597 151.452L277.668 149.16Z" fill="#78635E"/>
<path d="M183.719 127.871L183.922 87.5818L180.579 111.372L180.085 127.593L183.649 130.162L183.719 127.871Z" fill="#78635E"/>
<path d="M181.117 85.7348L180.57 126.024L184.116 102.303L184.743 86.082L181.205 83.4572L181.117 85.7348Z" fill="#78635E"/>
<path d="M262.119 36.4793C257.581 38.2694 257.699 15.5044 246.167 16.4164C234.634 17.2946 239.73 24.9617 237.176 26.4816C234.623 28.0015 232.638 20.4358 230.386 23.5431C228.133 26.6505 231.523 34.2332 227.832 32.9159C224.153 31.5649 220.741 17.6999 211.966 16.3826C203.179 15.0654 201.677 21.7699 194.779 21.3139C187.892 20.8748 192.988 28.8966 186.755 34.2501C180.522 39.6035 179.385 28.8966 176.552 31.1258C173.72 33.355 175.995 41.8159 172.304 41.3768C168.614 40.9377 173.441 25.3164 166.64 19.5238C159.838 13.7312 159.549 18.2403 155.021 16.2137C150.483 14.1872 154.163 8.37776 148.231 9.27282C142.277 10.151 147.673 12.8361 139.165 16.4164C130.658 19.9797 130.948 11.958 126.978 16.4164C123.009 20.8748 124.425 30.2476 121.883 34.2501C119.329 38.2694 113.955 32.899 113.955 36.9184C113.955 40.9377 139.455 45.3961 139.455 45.3961L161.265 64.5808L176.005 70.3058L189.33 57.4372L198.963 58.3154L214.83 56.9643L227.017 56.0862L238.635 44.0451L246.209 53.857L262.162 55.6471L262.119 36.4793Z" fill="#84C3BA"/>
<path d="M114.212 39.6205C113.933 32.4769 118.46 32.9329 125.83 35.6011C133.2 38.2694 130.078 27.1234 138.575 27.5794C147.082 28.0185 151.899 30.2308 152.457 33.6084C153.015 36.9691 151.041 43.6567 159.548 45.4299C168.055 47.22 169.751 53.9077 170.598 60.1393C171.456 66.3879 176.262 65.9319 176.262 56.576C176.262 47.22 177.121 40.6506 183.053 45.9366C189.007 51.2225 189.758 38.2863 194.768 38.7254C199.767 39.1645 199.167 52.6917 205.271 45.9366C211.386 39.1814 216.203 31.5818 219.314 40.9546C222.425 50.3274 224.699 43.758 228.1 45.9366C231.501 48.0982 235.191 56.1369 230.364 58.8052C225.547 61.4734 207.322 55.0898 212.512 70.3228C217.703 85.5557 187.58 85.5557 187.58 85.5557C187.58 85.5557 175.683 83.7655 172.282 81.5363C168.882 79.3071 160.095 85.5557 160.095 85.5557C160.095 85.5557 149.324 75.7438 148.198 75.7438C147.061 75.7438 136.011 71.5894 134.874 70.3228C133.737 69.0562 124.95 50.3274 124.95 50.3274C124.95 50.3274 121.271 47.2031 117.859 44.5348C114.48 41.8666 114.212 39.6205 114.212 39.6205Z" fill="#7CB797"/>
<path d="M113.086 60.1226C115.349 47.6424 128.105 46.2914 135.475 51.2058C142.845 56.1033 137.739 63.2469 149.078 67.7053C160.407 72.1638 153.327 80.1855 171.178 76.6221C189.029 73.0588 183.659 79.5638 186.197 85.9949C190.055 95.772 176.192 99.3211 167.777 105.619C162.914 109.258 160.525 113.757 154.453 113.641C145.27 113.465 149.752 92.1974 140.85 94.4558C136.346 95.5983 141.794 99.3364 132.064 102.478C122.333 105.619 121.003 94.8809 113.075 91.7875C109.29 90.3106 107.214 88.6056 103.152 88.6632C99.566 88.7141 97.5755 89.7333 94.3654 91.3316C90.1586 93.4261 89.711 98.6111 85.0213 98.9142C81.8642 99.1183 79.5782 98.5137 77.3723 96.246C72.6413 91.3825 78.7883 81.5534 85.8796 81.0974C92.9708 80.6415 89.2803 68.1613 96.9294 68.1613C104.578 68.1613 102.315 77.9732 107.411 74.8489C112.506 71.7415 113.086 60.1226 113.086 60.1226Z" fill="#76ADA7"/>
<path d="M96.0987 134.067C96.0987 134.067 77.6644 136.672 80.2614 144.597C82.8584 152.523 114.014 155.861 132.516 155.445C151.018 155.029 225.658 149.184 243.181 151.275C260.704 153.365 277.044 153.387 277.044 153.387C277.044 153.387 247.439 160.918 258.635 166.26C269.705 171.547 145.177 168.384 112.719 164.213C80.2614 160.043 70.8527 155.456 71.4998 145.856C71.4998 145.856 72.4449 139.858 78.7032 137.603C84.9615 135.348 86.9625 135.194 86.9625 135.194L96.0987 134.067Z" fill="#C8ECE8"/>
<path d="M3.43433 235.073L135.217 207.014L163.276 199.55L170.058 208.074L49.2548 252.834L3.43433 235.073Z" fill="#BCCFCD"/>
<path d="M54.9338 254.608L105.373 272.726L147.289 257.799L90.4566 240.395L54.9338 254.608Z" fill="#BCCFCD"/>
<path d="M109.992 272.726L147.289 259.584L192.049 270.596L151.021 289.06L109.992 272.726Z" fill="#BCCFCD"/>
<path d="M236.453 279.476C236.453 279.476 280.857 255.322 297.547 242.893C314.238 230.465 330.582 217.322 330.582 217.322L289.38 211.643C289.38 211.643 240.715 250.357 230.417 256.577C220.12 262.797 199.87 269.892 199.87 269.892L236.453 279.476Z" fill="#BCCFCD"/>
<path d="M3.43433 231.793L135.217 203.733L163.276 196.27L170.058 204.794L49.2548 249.554L3.43433 231.793Z" fill="#F3F8FA"/>
<path d="M54.9338 251.328L105.373 269.446L147.289 254.519L90.4566 237.114L54.9338 251.328Z" fill="#F3F8FA"/>
<path d="M109.992 269.446L147.289 256.304L192.049 267.315L151.021 285.78L109.992 269.446Z" fill="#F3F8FA"/>
<mask id="mask1_2693_4538" style="mask-type:alpha" maskUnits="userSpaceOnUse" x="-104" y="131" width="547" height="215">
<path d="M336.487 144.97C335.6 133.482 231.563 133.525 164.401 132.638C97.2386 131.751 17.6909 128.214 19.4649 137.939C21.2281 147.663 43.327 143.239 44.214 151.2C45.101 159.151 -104.259 156.5 -103.372 175.949C-102.485 195.387 43.3379 200.698 38.0267 209.536C32.7156 218.373 -37.1076 225.426 -37.9838 250.175C-38.8707 274.924 37.3173 350.227 202.578 345.814C367.839 341.401 366.612 275.746 357.299 271.354C347.704 266.833 327.012 258.136 327.012 258.136C327.012 258.136 433.948 247.536 435.711 228.974C437.474 210.412 414.499 212.229 414.499 212.229C414.499 212.229 442.774 206.875 442.774 192.737C442.774 178.599 440.102 178.015 411.189 175.008C383.065 172.088 273.089 169.751 276.626 160.038C280.163 150.324 326.471 149.004 330.841 148.355C336.498 147.512 336.487 144.97 336.487 144.97Z" fill="#D8ECEA"/>
</mask>
<g mask="url(#mask1_2693_4538)">
<path d="M192.049 301.845L230.406 283.381L194.18 272.726L153.681 290.834L192.049 301.845Z" fill="#BCCFCD"/>
<path d="M192.049 298.565L230.406 280.101L194.18 269.446L153.681 287.554L192.049 298.565Z" fill="#F3F8FA"/>
</g>
<path d="M236.453 276.196C236.453 276.196 280.857 252.042 297.547 239.613C314.238 227.184 330.582 214.042 330.582 214.042L289.38 208.363C289.38 208.363 240.715 247.077 230.417 253.297C220.12 259.516 199.87 266.612 199.87 266.612L236.453 276.196Z" fill="#F3F8FA"/>
<path d="M153.681 251.646L155.455 252.187L195.954 264.604C195.954 264.604 230.406 251.462 238.226 242.224C246.036 232.987 286.535 206.701 286.535 206.701L247.464 199.952L153.681 251.646Z" fill="#F3F8FA"/>
<path opacity="0.58" d="M135.563 205.641C135.563 205.641 49.3144 208.119 45.0525 212.035C40.7907 215.94 20.1252 217.724 20.1252 217.724C20.1252 217.724 6.62571 219.141 6.62571 221.629C6.62571 224.117 -4.38591 233.354 17.2804 232.64C38.9467 231.926 53.8632 231.926 61.3269 234.414C68.7906 236.902 101.468 236.902 101.468 236.902L95.0757 246.14C95.0757 246.14 87.2659 248.271 89.3968 252.533C91.5277 256.795 127.051 251.819 137.348 252.533C147.646 253.247 185.3 263.544 189.205 259.282C193.109 255.021 189.205 253.247 189.205 253.247C189.205 253.247 205.192 263.901 229.346 263.187C253.5 262.473 260.607 259.985 260.607 259.985L265.226 263.22C265.226 263.22 306.071 240.45 305.367 231.926C304.654 223.403 295.07 204.224 292.582 205.641C290.094 207.058 280.153 205.566 280.153 205.566L135.563 205.641Z" fill="#BFC2C4"/>
<path opacity="0.78" d="M13.018 223.76C13.018 223.76 4.49424 228.378 7.68523 229.092C10.8762 229.806 61.6725 229.806 70.207 231.223C78.7308 232.64 104.302 241.521 104.302 241.521L92.2303 254.307C92.2303 254.307 134.146 251.819 141.61 252.533C149.073 253.247 184.239 258.925 186.37 258.925C188.501 258.925 189.572 253.593 189.572 253.593L202 248.974L220.822 251.819C220.822 251.819 214.072 257.151 219.405 260.699C224.738 264.247 227.572 261.056 238.583 260.699C249.595 260.342 260.249 260.342 260.249 260.342C260.249 260.342 263.094 264.961 265.928 264.247C268.773 263.533 275.166 257.141 275.166 257.141L252.429 234.403L219.394 233.69L144.801 226.94H95.4213L13.018 223.76Z" fill="#A1A4A6"/>
<path d="M20.1245 174.738C20.1245 174.738 19.0212 172.931 19.443 171.276C19.8649 169.632 20.4274 168.648 20.4274 168.648" stroke="#261B1C" stroke-width="0.3" stroke-miterlimit="10"/>
<path d="M20.6002 169.989C21.353 169.989 21.9632 169.379 21.9632 168.626C21.9632 167.873 21.353 167.263 20.6002 167.263C19.8475 167.263 19.2373 167.873 19.2373 168.626C19.2373 169.379 19.8475 169.989 20.6002 169.989Z" fill="#261B1C"/>
<path d="M22.8499 173.115C22.8499 173.115 20.2213 169.275 19.118 169.578C18.0039 169.881 18.4149 174.933 18.4149 174.933L22.8499 173.115Z" fill="#D18353"/>
<path d="M10.2378 180.99C9.72937 179.173 10.0322 178.167 13.061 177.053C16.0897 175.938 18.9129 173.418 18.9129 173.418C18.9129 173.418 21.4333 173.721 22.4501 172.91C23.4669 172.098 27.5989 172.001 27.5989 172.001C27.5989 172.001 26.7877 174.424 26.0846 175.733C25.3815 177.042 23.456 177.247 27.5989 185.122C31.7418 192.997 31.0279 193.505 43.9541 193.905C56.8803 194.306 53.7434 201.986 53.7434 201.986L39.6057 208.952C39.6057 208.952 38.0913 207.34 36.6743 207.34C35.2573 207.34 32.0447 207.74 32.0447 207.74L35.7657 218.341L32.0447 220.061L28.1939 210.877L27.6855 220.666L23.5426 220.061C23.5426 220.061 24.4512 199.974 23.5426 195.322C22.634 190.682 20.3083 184.116 19.205 183.207C18.0909 182.299 14.359 182.396 12.8446 182.504C11.3411 182.602 10.2378 180.99 10.2378 180.99Z" fill="#FFC54E"/>
<path d="M11.4492 177.766C11.4492 177.766 12.0549 177.972 12.5633 179.887C13.0717 181.801 12.5633 182.818 12.5633 182.818C12.5633 182.818 10.043 181.607 9.74008 180.298C9.42639 178.967 11.4492 177.766 11.4492 177.766Z" fill="#D18353"/>
<path d="M23.759 173.418L24.5703 174.933C24.5703 174.933 26.2902 174.024 25.9873 173.418C25.6736 172.812 23.759 173.418 23.759 173.418Z" fill="#D18353"/>
<path d="M36.7825 193.202C36.7825 193.202 37.4856 201.683 40.0167 202.083C42.5371 202.483 45.3711 194.208 46.5826 194.814C47.7941 195.42 45.7713 201.304 47.2857 202.094C48.8001 202.883 54.1544 198.751 54.1544 198.751C54.1544 198.751 51.8288 194.305 48.4972 194.003C45.1656 193.7 36.7825 193.202 36.7825 193.202Z" fill="#D18353"/>
<path d="M23.759 185.533C24.9705 188.562 22.342 191.082 22.342 191.082C22.342 191.082 21.3576 187.75 20.5896 186.442C19.8216 185.133 19.3132 183.856 19.3132 183.856C19.3132 183.856 20.3408 183.196 21.693 183.856C23.0451 184.516 23.759 185.533 23.759 185.533Z" fill="#D18353"/>
<path d="M29.5136 198.762C32.1421 199.974 32.3044 202.7 31.2659 204.117C30.2275 205.534 27.8045 207.848 26.6904 205.934C25.5762 204.019 25.4789 202.505 26.6904 201.088C27.9019 199.671 29.5136 198.762 29.5136 198.762Z" fill="#D18353"/>
<path d="M25.2843 176.479C25.2843 176.479 22.6233 176.631 23.0344 180.092C23.4454 183.553 26.7446 182.428 26.7446 182.428C26.7446 182.428 25.0571 180.709 25.1437 179C25.2194 177.28 25.2843 176.479 25.2843 176.479Z" fill="#D18353"/>
<path d="M24.0835 205.923L28.843 211.375L27.5666 219.855H23.759L24.0835 206.658V205.923Z" fill="#D18353"/>
<path d="M29.1237 188.14C29.1237 188.14 30.6381 191.677 31.9469 192.077C33.2558 192.477 35.1812 192.683 35.1812 192.683C35.1812 192.683 32.1524 196.718 29.1237 195.009C26.095 193.3 29.1237 188.14 29.1237 188.14Z" fill="#D18353"/>
<path d="M23.6611 217.432L27.8256 218.081L27.6958 220.666L23.7585 219.855L23.6611 217.432Z" fill="#261B1C"/>
<path d="M32.0552 220.061L36.2738 218.243L34.8676 215.745L30.9519 217.432L32.0552 220.061Z" fill="#261B1C"/>
<path d="M20.5569 174.965C20.5569 174.965 20.611 172.845 21.8441 171.687C23.0772 170.53 24.094 170 24.094 170" stroke="#261B1C" stroke-width="0.3" stroke-miterlimit="10"/>
<path d="M24.2453 171.428C24.998 171.428 25.6082 170.818 25.6082 170.065C25.6082 169.312 24.998 168.702 24.2453 168.702C23.4925 168.702 22.8823 169.312 22.8823 170.065C22.8823 170.818 23.4925 171.428 24.2453 171.428Z" fill="#261B1C"/>
<path d="M18.4263 177.712C18.7967 177.712 19.0969 177.412 19.0969 177.042C19.0969 176.671 18.7967 176.371 18.4263 176.371C18.0559 176.371 17.7556 176.671 17.7556 177.042C17.7556 177.412 18.0559 177.712 18.4263 177.712Z" fill="#261B1C"/>
<path d="M35.0627 199.974H67.8813L100.278 184.624L101.187 186.236L70.3043 201.683H96.0377L90.997 222.083L77.3677 226.118H41.2284L35.0627 199.974Z" fill="#FFB034"/>
<path d="M69.0928 201.283L100.581 185.63V186.842L70.4016 201.986L69.0928 201.283Z" fill="#FF9C25"/>
<path d="M88.271 205.22L85.3396 225.112L89.7854 204.711L88.271 205.22Z" fill="#FF9C25"/>
<path d="M92.8141 205.728L92.706 206.183L88.9741 222.181L94.123 205.123L92.8141 205.728Z" fill="#FF9C25"/>
<path d="M91.0948 218.947L74.3394 217.941V219.552L91.0948 218.947Z" fill="#FF9C25"/>
<path d="M70.304 222.181V223.392H90.2828L70.304 222.181Z" fill="#FF9C25"/>
<path d="M48.5945 217.941L49.2003 218.752H40.3196V217.941H48.5945Z" fill="#FF9C25"/>
<path d="M43.9545 224.096L40.32 209.666H48.8004L42.1372 202.894L35.8093 203.132L37.3453 209.666H37.897L42.9377 224.096H43.9545Z" fill="#FF9C25"/>
<path d="M35.4739 200.071L45.5661 197.345L62.0186 200.071L62.527 201.283L35.4739 200.071Z" fill="#FF9C25"/>
<path d="M107.774 188.67L100.829 196.545L89.1364 201.759H73.322L89.1364 192.975L107.774 188.67Z" fill="#BA290C"/>
<path d="M70.4988 201.261C70.4988 201.261 95.8536 187.426 102.733 187.675C109.613 187.924 107.46 189.168 107.46 189.168L96.4378 193.559L89.5582 193.148L85.08 197.129L73.3112 201.769H70.4988V201.261Z" fill="#F24F26"/>
<path d="M94.0367 197.453L96.4381 193.559L85.0803 197.118L94.0367 197.453Z" fill="#F24F26"/>
<path d="M82.5444 193.246C82.5444 193.246 83.5114 180.309 80.288 176.079C77.0537 171.85 74.3279 170.443 74.3279 170.443C74.3279 170.443 79.3794 175.582 79.7147 180.547C80.05 185.522 79.494 194.814 79.494 194.814L82.5444 193.246Z" fill="#FF4F00"/>
<path d="M67.9358 172.099C67.9358 172.099 70.9645 168.713 73.7769 170.206C76.5893 171.698 80.9377 177.172 80.9377 177.172C80.9377 177.172 79.2611 169.935 74.307 169.124C68.7579 168.205 67.9358 172.099 67.9358 172.099Z" fill="#FF9C25"/>
<path d="M62.6353 200.439C62.6353 200.439 63.6629 183.954 64.9501 177.907C66.2806 171.698 68.9307 169.156 72.2407 169.6C75.5507 170.043 77.8438 173.645 77.8438 173.645C77.8438 173.645 70.3045 167.22 69.3742 174.186C68.4331 181.141 66.8647 196.718 66.8647 196.718L62.6353 200.439Z" fill="#FFB034"/>
<path d="M62.624 204.831L62.8512 197.259L67.1779 193.559L66.6804 201.899L62.9593 204.831" fill="#FF9B25"/>
<path d="M66.2801 207.308L66.8534 199.519L62.624 202.256V206.983L66.2801 207.308Z" fill="#FF4F00"/>
<path d="M68.1841 208.097C68.1841 209.904 66.7238 211.364 64.9174 211.364C63.7925 211.364 62.8081 210.802 62.2132 209.936C61.8562 209.406 61.6399 208.779 61.6399 208.087C61.6399 206.28 63.1002 204.82 64.9066 204.82C66.7238 204.831 68.1841 206.291 68.1841 208.097Z" fill="#FFDFA8"/>
<path d="M61.8992 209.363L67.5781 206.204L67.935 206.832L62.2129 209.947L61.8992 209.363Z" fill="#BFA77E"/>
<path d="M35.6575 201.759L35.9063 203.414L46.3662 203.846L44.8519 201.759H35.6575Z" fill="#FF4F00"/>
<path d="M39.2493 201.759C39.2493 201.759 45.3392 206.584 48.011 211.7C50.6936 216.816 52.0889 220.527 52.0889 220.527C52.0889 220.527 56.7727 215.129 58.114 209.948C59.4553 204.766 59.5743 204.453 60.8507 203.425C62.1271 202.397 62.7112 201.77 62.7112 201.77H39.2493V201.759Z" fill="#C51E00"/>
<path d="M54.2196 217.789C54.2196 217.789 50.3255 207.751 47.7078 205.804C45.0901 203.857 42.4724 201.769 42.4724 201.769H46.2475C46.2475 201.769 51.18 205.317 52.9432 209.093C54.7064 212.868 55.5176 215.756 55.5176 215.756L54.2196 217.789Z" fill="#E25100"/>
<path d="M48.3782 201.758C48.3782 201.758 51.6016 204.214 53.1268 206.951C54.652 209.687 56.8154 213.376 56.8154 213.376L57.9944 210.401C57.9944 210.401 55.1604 205.133 53.2999 203.608C51.4394 202.083 50.693 201.758 50.693 201.758H48.3782Z" fill="#E25100"/>
<path d="M54.22 201.759C54.22 201.759 55.6803 202.137 57.0216 204.084C58.3629 206.031 58.9037 207.308 58.9037 207.308L59.6393 204.82C59.6393 204.82 58.4494 201.856 57.5191 201.759C56.5564 201.661 54.22 201.759 54.22 201.759Z" fill="#E25100"/>
<path opacity="0.46" d="M39.5417 201.759L45.3288 208.065C45.3288 208.065 47.9898 208.692 51.8622 205.263C59.5422 198.47 59.023 206.183 60.2562 204.43C61.9003 202.116 62.7116 201.748 62.7116 201.748H39.5417V201.759Z" fill="#730D00"/>
<path d="M10.2163 223.079L15.5382 227.211H10.9086H10.2163V223.079Z" fill="#E1B270"/>
<path d="M31.2445 226.551H39.3572L38.9029 224.896L21.5525 224.658L20.6655 226.724L31.2445 226.551Z" fill="#721104"/>
<path d="M10.2163 220.904C10.2163 220.904 12.0011 227.027 13.7643 227.211C15.5274 227.395 21.2496 227.113 22.7315 226.324C24.2134 225.534 25.1004 224.052 26.5715 225.145C28.0426 226.237 27.6532 226.821 29.7192 226.724C31.7852 226.627 31.1038 224.95 33.6566 225.145C36.2202 225.339 34.933 226.843 40.1575 226.735C45.3821 226.627 48.5082 227.427 48.8111 226.746C49.1031 226.053 48.7678 221.997 48.7678 221.997C48.7678 221.997 45.3064 224.29 42.7212 223.825C39.7465 223.295 36.5122 218.936 33.8513 219.13C31.1903 219.325 29.4812 224.052 29.4812 224.052C29.4812 224.052 29.2216 219.812 25.1761 219.617C21.1414 219.422 19.2593 222.776 16.1115 222.927C12.9746 223.079 10.2163 220.904 10.2163 220.904Z" fill="#FFEACB"/>
<path d="M14.5537 223.468C14.5537 223.468 17.6041 223.371 19.7783 221.889C21.9525 220.407 24.2132 220.212 25.3923 220.309C26.5713 220.407 28.54 223.457 28.54 223.457C28.54 223.457 25.1867 221.391 24.1051 221.391C23.0234 221.391 19.3781 223.165 18.1882 223.457C17.02 223.76 14.5537 223.468 14.5537 223.468Z" fill="#E1B270"/>
<path d="M13.8621 225.145C13.8621 225.145 14.1325 225.166 14.5543 225.177C15.7009 225.209 18.0158 225.145 19.3787 224.355C21.25 223.273 23.4134 222.083 25.1874 223.079C26.9614 224.063 27.751 224.463 27.751 224.463C27.751 224.463 24.9927 223.241 23.1213 223.955C21.25 224.658 20.071 225.653 18.9785 225.75C17.8968 225.837 13.8621 225.145 13.8621 225.145Z" fill="#E1B270"/>
<path d="M30.2167 225.739C30.2167 225.739 30.022 221.196 33.57 220.71C37.1179 220.223 39.8762 225.75 43.1321 225.739C46.388 225.729 47.275 224.225 47.275 224.225C47.275 224.225 44.2247 224.788 42.2452 224.225C40.2765 223.663 38.7513 221.943 38.7513 221.943C38.7513 221.943 39.9844 223.684 43.2403 224.009C46.507 224.333 47.8051 223.836 47.8051 223.836L48.4973 223.901V224.452C48.4973 224.452 45.8147 225.858 44.6465 225.999C43.4783 226.14 41.5529 226.14 37.7453 224.387C33.927 222.635 30.2167 225.739 30.2167 225.739Z" fill="#E1B270"/>
<path d="M48.941 226.388H9.4917V227.697H48.941V226.388Z" fill="#EC3007"/>
<path d="M30.7688 227.211H28.335V228.303H30.7688V227.211Z" fill="#EC3007"/>
<path d="M295.373 238.763L301.344 248.639L298.359 254.599L284.016 239.737L295.373 238.763Z" fill="#F0C6B4"/>
<path d="M308.689 264.237L319.939 267.688L315.006 278.018L305.931 276.633L308.689 264.237Z" fill="#F0C6B4"/>
<path d="M291.479 248.639L293.308 251.516L301.345 247.492L299.733 245.188L291.479 248.639Z" fill="white"/>
<path d="M318.543 264.605C318.543 264.605 317.397 269.884 314.985 272.869C312.572 275.854 306.374 274.708 306.374 274.708C306.374 274.708 307.521 278.505 310.961 278.559C314.4 278.613 321.518 278.148 323.13 274.481C324.741 270.803 321.983 265.762 321.983 265.762L318.543 264.605Z" fill="white"/>
<path d="M311.275 293.161C311.48 293.681 311.772 294.146 312.086 294.557C313.341 296.168 315.558 296.688 317.397 295.801C324.287 292.512 343.931 283.004 346.495 280.257C349.61 276.904 354.975 270.035 355.851 267.806C356.554 266.022 355.927 264.929 354.715 264.323C353.818 263.88 351.881 264.323 351.881 264.323L310.788 284.562L311.275 293.161Z" fill="white"/>
<path d="M302.718 245.188L292.453 250.175L313.037 264.702C313.037 264.702 316.023 267.925 318.089 268.034C320.155 268.142 323.822 269.699 320.847 273.28C317.862 276.86 310.517 278.472 310.517 278.472L310.971 288.802C310.971 288.802 311.242 288.737 311.728 288.607C314.379 287.926 323.389 285.514 329.782 282.604C337.354 279.164 352.508 264.929 352.508 264.929C352.508 264.929 349.523 260.797 342.405 266.303C335.288 271.809 328.17 269.061 326.342 266.303C324.503 263.545 317.234 261.771 310.236 257.855C303.248 253.95 302.718 245.188 302.718 245.188Z" fill="#49476A"/>
<path d="M192.894 203.327C192.894 203.327 240.932 181.314 253.144 175.311C265.357 169.307 270.635 173.472 276.098 183.802C281.56 194.132 286.082 199.476 288.602 205.88C291.123 212.283 301.334 238.99 301.334 238.99L284.351 251.505C284.351 251.505 265.292 223.446 264.837 223.381C261.852 222.927 262.847 213.678 260.045 209.092C258.326 206.291 254.561 205.609 251.965 207.621L233.966 223.825L192.894 203.327Z" fill="#2B4A79"/>
<path d="M161.6 223.673C161.146 235.237 160.508 242.776 165.905 242.268C171.303 241.759 167.787 245.156 170.167 245.534C172.558 245.913 172.936 244.399 173.812 245.534C174.689 246.67 175.327 246.043 177.328 247.049C179.329 248.055 182.217 248.055 186.371 247.049C190.514 246.043 200.184 246.93 205.593 247.795C210.99 248.671 212.126 245.794 217.156 246.919C222.186 248.055 227.832 246.919 235.999 247.427C244.166 247.936 251.143 246.118 250.018 249.374C248.882 252.641 253.241 249.677 256.043 253.452C258.833 257.217 278.185 272.036 282.09 276.179C285.984 280.322 301.247 275.476 301.247 275.476C301.247 275.476 301.03 276.568 304.167 279.078C307.304 281.587 305.855 279.543 307.575 278.018C311.696 274.34 316.758 263.144 314.465 260.57C312.323 258.168 303.908 255.745 290.365 244.961C274.529 231.883 276.865 233.603 272.009 229.763C267.022 225.826 267.79 219.79 260.878 218.416C253.966 217.043 213.9 212.023 213.9 212.023L161.6 223.673Z" fill="#355F8D"/>
<path d="M210.038 192.402L209.984 139.756C209.984 139.756 220.379 146.04 227.378 165.284C229.801 168.691 228.027 176.739 232.635 182.775C237.243 188.8 237.048 189.99 236.334 192.272C235.631 194.554 234.961 194.36 237.503 196.426C240.055 198.492 234.009 199.206 236.194 201.261C237.881 202.851 233.911 202.516 227.886 207.253C221.861 211.991 224.187 206.15 224.187 206.15C224.187 206.15 224.771 205.414 221.321 204.679C217.87 203.943 210.785 192.726 210.785 192.726L210.038 192.402Z" fill="#005D9C"/>
<path d="M205.333 127.825C205.333 127.825 204.371 130.172 205.852 131.254C207.345 132.324 208.654 135.732 213.792 142.276C218.941 148.831 218.259 148.258 218.887 162.06C216.918 171.406 215.35 177.225 214.982 180.784C214.841 182.104 215.88 191.774 216.821 195.593C217.751 199.422 217.383 205.047 215.75 209.103C214.117 213.159 209.087 206.756 208.924 210.033C208.762 213.311 207.626 214.782 201.309 215.366C194.992 215.961 192.591 221.456 192.591 221.456C192.591 221.456 195.652 226.994 192.851 227.697C190.049 228.4 193.597 233.095 187.994 233.647C182.369 234.187 188.345 224.158 183.64 225.976C180.168 227.317 177.069 205.955 177.069 205.955L174.62 209.103C174.62 209.103 169.467 192.244 163.139 184.153C159.98 180.108 159.859 185.89 158.615 181.293C157.371 176.695 161.298 180.611 161.06 174.759C160.822 168.907 165.04 162.157 166.338 153.601C167.517 145.846 174.602 140.026 177.858 137.246C181.103 134.466 182.239 131.189 192.245 130.356C202.25 129.523 205.333 127.825 205.333 127.825Z" fill="#0096CA"/>
<path d="M196.427 140.691C196.427 140.691 200.167 151.189 199.097 155.549C198.027 159.899 196.328 163.872 196.427 171.689C196.526 179.506 197.704 181.164 203.376 185.395C209.039 189.626 207.223 199.995 210.486 200.759C213.749 201.524 213.668 201.642 214.819 200.243C215.97 198.854 218.082 199.855 218.082 199.855L216.958 205.745C216.958 205.745 210.801 218.697 208.104 220.086C205.407 221.475 199.681 225.976 199.681 225.976C199.681 225.976 180.782 221.875 180.36 221.875C179.937 221.875 164.779 185.395 164.779 185.395L169.699 179.233L180.36 182.513C180.36 182.513 191.627 208.307 197.074 209.588C202.531 210.87 209.371 206.132 207.34 202.03C205.308 197.928 203.484 190.38 199.69 186.666C195.897 182.951 193.973 182.951 193.757 177.191C193.542 171.43 192.58 161.18 194.503 156.314C196.427 151.447 196.436 148.249 196.436 145.428C196.427 142.607 196.427 140.691 196.427 140.691Z" fill="#005D9C"/>
<path d="M205.517 127.965C205.517 127.965 194.819 130.81 191.023 128.722C187.215 126.635 187.853 124.233 185.993 124.839C170.287 129.977 173.088 130.431 177.383 131.005C181.677 131.567 190.514 131.005 190.514 131.005H202.846L205.517 127.965Z" fill="#0096CA"/>
<path d="M201.385 124.818L205.517 127.954C205.517 127.954 198.919 132.238 182.51 128.463C176.009 126.959 178.626 131.708 185.181 130.648C191.747 129.588 192.245 130.323 192.245 130.323C192.245 130.323 182.477 131.383 178.734 136.889C174.992 142.395 169.497 145.932 169.497 145.932C169.497 145.932 167.853 146.776 169.226 143.617C170.6 140.459 173.759 139.085 169.713 134.455C165.668 129.837 168.253 129.188 170.124 128.787C171.996 128.387 186.003 124.818 186.003 124.818H201.385Z" fill="#005D9C"/>
<path d="M204.598 151.114C204.598 151.114 216.886 146.517 217.535 153.991C218.195 161.466 215.166 165.76 209.66 165.251C204.154 164.754 203.657 164.635 203.657 164.635L203.538 162.234C203.538 162.234 210.255 162.818 211.813 161.303C213.37 159.778 213.673 158.037 213.327 155.895C212.981 153.753 212.224 153.05 209.119 153.461C206.004 153.85 204.814 153.959 204.814 153.959L204.598 151.114Z" fill="white"/>
<path d="M202.131 156.76L201.558 159.01L207.669 159.042L208.481 156.749L202.131 156.76Z" fill="white"/>
<path d="M234.096 203.046C234.096 203.046 238.606 207.307 240.618 209.525C242.63 211.742 245.551 218.546 246.978 222.581C248.406 226.616 246.989 228.217 246.048 225.739C245.107 223.262 244.274 222.905 244.674 225.534C245.064 228.173 243.095 227.86 242.663 226.81C242.23 225.761 241.505 224.766 241.246 226.486C240.975 228.206 240.921 227.773 239.677 227.189C238.433 226.605 238 223.468 237.773 224.874C237.546 226.259 236.702 224.625 236.291 222.776C235.88 220.926 235.567 219.487 233.728 217.378C231.889 215.28 230.915 215.215 230.429 216.091C229.942 216.978 233.111 218.936 233.447 220.915C233.782 222.895 233.176 223.598 231.997 223.89C230.807 224.182 230.526 222.851 230.18 220.028C229.834 217.216 227.995 217.703 226.762 214.393C225.529 211.083 226.037 208.508 226.037 208.508L234.096 203.046Z" fill="#F0C6B4"/>
<path d="M203.624 203.046C203.624 203.046 206.188 203.554 208.773 205.966C211.358 208.368 210.201 209.882 212.667 211.299C215.133 212.716 216.258 213.473 215.534 214.468C214.809 215.463 213.933 215.745 212.234 214.674C210.525 213.603 209.93 209.914 208.925 210.044C207.919 210.174 207.605 211.083 208.849 213.592C210.082 216.102 211.293 216.956 212.84 218.038C214.387 219.12 215.577 220.547 214.203 220.201C212.829 219.855 215.555 221.478 215.62 222.851C215.685 224.225 216.053 224.441 214.365 224.02C212.678 223.619 213.316 224.658 214.127 225.469C214.939 226.269 214.463 228.206 212.18 226.843C209.898 225.48 209.909 226.378 211.845 228.195C213.77 230.023 211.748 230.704 208.578 227.849C205.409 224.993 200.239 219.682 198.962 216.978C197.697 214.263 195.468 208.465 195.468 208.465L203.624 203.046Z" fill="#F0C6B4"/>
<path d="M219.882 112.259C219.882 112.259 226.556 110.507 228.189 106.678C229.822 102.859 226.913 98.3593 225.939 97.0721C224.966 95.7633 226.675 93.827 228.578 94.0434C230.482 94.2597 227.14 90.0736 224.49 89.046C221.839 88.0184 216.236 88.6566 213.857 88.4619C211.466 88.2564 211.542 85.974 213.067 85.6819C214.592 85.3899 209.422 83.9945 208.405 84.3082C207.388 84.6218 206.35 85.2492 206.025 86.6663C205.69 88.0833 205.29 88.3104 200.974 87.4667C196.658 86.623 191.238 86.9583 190.297 91.0363C189.345 95.1143 190.579 96.9964 190.579 96.9964C190.579 96.9964 187.063 96.8882 187.604 101.951C188.156 107.002 189.681 112.443 189.086 113.871C188.491 115.299 190.168 115.364 190.168 115.364L192.32 112.951L219.882 112.259Z" fill="#49476A"/>
<path d="M190.2 128.084L190.092 130.085H204.067L204.046 125.217C204.046 125.217 201.947 123.379 202.824 121.691C203.7 120.014 204.695 118.208 204.695 118.208L198.237 112.475L192.245 112.508L190.2 128.084Z" fill="#F0C6B4"/>
<path d="M200.239 127.229L195.36 128.949C195.36 128.949 190.86 125.78 192.158 120.555C193.456 115.32 192.883 113.038 192.883 113.038L191.563 112.107L193.608 109.187L195.858 106.699L202.889 110.355L205.42 117.592L200.239 127.229Z" fill="#EAB19F"/>
<path d="M211.207 94.584C211.207 94.584 219.233 96.596 220.369 102.513C221.505 108.419 220.196 111.156 218.119 114.779C216.053 118.392 217.275 119.095 215.815 121.194C214.355 123.292 213.132 123.984 207.983 129.155C206.22 130.918 202.488 128.214 199.708 125.867C196.928 123.53 193.294 120.837 193.391 119.009C193.51 117.191 193.748 112.356 193.748 112.356C193.748 112.356 192.861 114.541 191.682 113.362C190.514 112.172 190.276 109.241 191.066 106.256C191.855 103.281 193.283 100.739 195.901 101.593C198.519 102.448 197.242 107.651 197.242 107.651L198.378 108.981C198.378 108.981 198.951 103.843 202.845 102.123C206.729 100.393 207.388 99.3976 208.946 97.0719C210.504 94.7463 211.207 94.584 211.207 94.584Z" fill="#F0C6B4"/>
<path d="M211.618 107.975C211.737 107.964 211.856 107.91 211.921 107.813C212.668 106.699 211.986 105.66 209.152 104.59C204.836 102.945 203.56 104.006 203.398 104.168C203.387 104.179 203.365 104.189 203.365 104.211L203.343 104.243C203.181 104.46 203.3 104.763 203.571 104.817C204.306 104.947 205.626 105.217 206.675 105.531C207.854 105.877 209.141 106.645 209.823 107.391C210.32 107.932 211.229 107.986 211.618 107.975Z" fill="#49476A"/>
<path d="M214.798 108.04C214.636 108.808 215.858 109.544 217.47 109.966C218.519 110.236 219.536 110.874 220.12 111.285C220.477 111.534 220.985 111.318 221.007 110.885C221.018 110.734 220.996 110.539 220.91 110.344C220.553 109.576 220.012 108.57 217.535 107.737C215.058 106.894 214.798 108.04 214.798 108.04Z" fill="#49476A"/>
<path d="M212.04 111.069C212.04 111.069 211.099 112.183 210.786 114.92C210.483 117.657 211.143 118.771 208.882 118.284C206.621 117.797 207.843 118.122 207.843 118.122" stroke="#EAB19F" stroke-width="0.3" stroke-miterlimit="10"/>
<path d="M211.337 122.935C211.337 122.935 208.297 123.649 206.004 122.027C203.57 120.307 203.116 119.571 203.116 119.571" fill="#C89A89"/>
<path d="M211.315 122.827C211.315 122.827 208.632 122.611 206.21 121.345C203.635 120.015 203.062 119.539 203.062 119.539" fill="#F0C6B4"/>
<path d="M208.146 124.017C208.146 124.017 206.74 122.535 205.312 122.924L208.146 124.017Z" fill="#C89A89"/>
<path d="M208.913 110.788C208.913 110.788 208.459 108.257 206.22 107.651C204.511 107.186 203.105 108.105 203.105 108.105C203.105 108.105 203.083 109.717 204.727 110.68C206.945 111.988 208.913 110.788 208.913 110.788Z" fill="#EAB19F"/>
<path d="M208.687 110.852C208.687 110.852 208.903 109.89 207.854 108.84C207.021 108.008 205.68 107.542 204.457 107.683C203.311 107.813 203.159 108.213 203.159 108.213" stroke="#393D45" stroke-width="0.5" stroke-miterlimit="10"/>
<path d="M208.914 110.777C208.914 110.777 208.384 108.603 206.101 107.943C204.36 107.424 203.083 108.16 203.083 108.16C203.083 108.16 203.213 109.512 204.847 110.399C207.042 111.589 208.914 110.777 208.914 110.777Z" fill="#F9E4D6"/>
<path d="M205.236 109.079C204.923 109.663 205.204 110.452 205.972 110.82C206.826 111.242 207.8 110.907 208.016 110.128C208.211 109.436 207.681 108.722 206.934 108.505C206.231 108.3 205.507 108.549 205.236 109.079Z" fill="#393D45"/>
<path d="M205.615 108.624C205.517 108.873 205.658 109.154 205.939 109.263C206.285 109.403 206.329 109.349 206.642 108.992C206.718 108.733 206.545 108.462 206.264 108.365C206.004 108.289 205.712 108.397 205.615 108.624Z" fill="white"/>
<path d="M218.475 114.173C218.475 114.173 217.826 111.913 215.717 111.556C214.105 111.285 212.915 112.259 212.915 112.259C212.915 112.259 213.045 113.73 214.635 114.465C216.777 115.45 218.475 114.173 218.475 114.173Z" fill="#EAB19F"/>
<path d="M218.281 114.249C218.281 114.249 218.389 113.34 217.329 112.496C216.496 111.815 215.22 111.501 214.116 111.761C213.089 111.988 212.97 112.367 212.97 112.367" stroke="#393D45" stroke-width="0.5" stroke-miterlimit="10"/>
<path d="M218.476 114.152C218.476 114.152 217.794 112.216 215.642 111.816C213.998 111.513 212.905 112.292 212.905 112.292C212.905 112.292 213.154 113.514 214.733 114.174C216.842 115.083 218.476 114.152 218.476 114.152Z" fill="#F9E4D6"/>
<path d="M214.733 113.265C214.506 113.827 214.83 114.52 215.566 114.779C216.388 115.082 217.243 114.682 217.362 113.957C217.47 113.308 216.918 112.702 216.226 112.572C215.577 112.454 214.939 112.746 214.733 113.265Z" fill="#393D45"/>
<path d="M214.819 112.605C214.754 112.832 214.917 113.081 215.187 113.157C215.468 113.243 215.749 113.103 215.804 112.843C215.847 112.616 215.663 112.367 215.403 112.313C215.144 112.259 214.884 112.389 214.819 112.605Z" fill="white"/>
<path d="M193.825 108.579C194.078 106.949 193.933 105.574 193.502 105.507C193.071 105.441 192.517 106.707 192.264 108.337C192.012 109.966 192.156 111.341 192.587 111.408C193.018 111.475 193.572 110.208 193.825 108.579Z" fill="#EAB19F"/>
<path d="M140.885 105.131C150.728 104.763 155.563 109.966 157.608 117.949C159.652 125.942 160.204 131.697 170.988 136.337C181.762 140.978 172.849 147.111 179.534 156.965C186.218 166.809 184.92 167.739 185.288 174.986C185.656 182.234 182.314 189.665 178.041 190.411C173.768 191.158 158.538 192.272 158.538 192.272L127.515 206.582C127.515 206.582 123.61 208.811 121.198 204.354C118.786 199.898 124.54 194.695 119.9 190.79C115.259 186.885 96.676 186.701 96.1243 173.32C95.5618 159.94 112.469 160.135 114.892 155.299C117.304 150.464 106.714 150.843 107.828 143.963C108.942 137.084 121.944 137.084 122.875 133.374C123.805 129.653 118.602 127.056 122.691 121.67C126.779 116.283 126.596 117.949 128.64 114.238C130.684 110.528 129.386 110.333 132.729 107.921C136.05 105.498 140.885 105.131 140.885 105.131Z" fill="#3B3169"/>
<path d="M142.789 116.12C142.789 116.12 134.698 116.283 133.259 120.371C131.82 124.46 131.604 127.77 131.604 127.77L130.393 127.002L129.625 131.978C129.625 131.978 127.861 129.663 127.742 132.638C127.623 135.613 127.959 138.382 128.954 137.938C129.949 137.495 129.949 137.495 129.949 137.495C129.949 137.495 131.312 141.324 133.378 143.455C135.585 145.737 138.462 146.992 138.462 146.992C138.462 146.992 138.678 152.952 135.812 154.174C132.935 155.386 123.329 156.165 122.226 157.376C121.122 158.588 120.571 161.681 120.571 161.681C120.571 161.681 128.748 168.528 142.778 167.209C156.807 165.889 164.433 161.357 164.433 161.357C164.433 161.357 165.764 159.15 161.891 157.495C158.019 155.84 151.724 156.392 149.301 153.19C146.867 149.988 147.094 147.003 147.094 147.003C147.094 147.003 151.399 143.087 152.178 141.064C152.946 139.041 153.508 137.614 153.508 137.614C153.508 137.614 156.71 138.382 156.71 135.407C156.71 132.432 155.791 131.967 155.055 131.978C154.017 132 152.74 133.86 152.74 133.86C152.74 133.86 153.4 128.668 150.534 125.791C147.667 122.913 142.789 116.12 142.789 116.12Z" fill="#FFCDB5"/>
<path d="M126.682 198.459C126.682 198.459 128.391 201.791 128.283 203.781C128.175 205.771 125.968 209.308 125.968 209.308C125.968 209.308 132.599 215.16 139.111 214.5C145.633 213.841 158.884 209.417 158.884 209.417C158.884 209.417 156.234 205.988 156.894 203.013C157.554 200.027 158.884 197.485 158.884 197.485L126.682 198.459Z" fill="#FFCDB5"/>
<path d="M126.682 198.459L128.045 201.964C128.045 201.964 137.348 203.565 142.864 203.673C148.392 203.781 157.229 201.704 157.229 201.704L158.884 197.485L126.682 198.459Z" fill="#E79A7E"/>
<path d="M179.209 173.071L164.628 196.706L121.101 197.485L106.52 173.515L179.209 173.071Z" fill="#4956A8"/>
<path d="M106.52 173.515L120.549 160.589C120.549 160.589 131.701 168.096 142.756 167.22C153.8 166.333 164.628 160.589 164.628 160.589C164.628 160.589 179.209 172.077 179.209 173.072C179.209 173.266 178.917 173.472 178.441 173.732C176.429 174.781 171.053 176.511 169.268 180.254C167.062 184.895 164.628 196.717 164.628 196.717C164.628 196.717 154.027 201.801 144.411 200.914C134.795 200.027 121.101 197.485 121.101 197.485C121.101 197.485 121.209 188.205 117.239 181.357C113.258 174.51 106.52 173.515 106.52 173.515Z" fill="#6073D0"/>
<path d="M126.185 208.757C126.185 208.757 135.022 212.845 142.865 211.85C150.707 210.855 158.333 208.757 158.333 208.757L160.431 215.604L162.638 222.343C162.638 222.343 180.097 220.796 188.49 221.131C196.884 221.466 203.407 230.964 203.407 230.964C203.407 230.964 196.56 222.894 182.638 226.983C168.717 231.072 162.086 233.938 162.086 233.938L145.85 241.013C145.85 241.013 109.17 223.002 100.008 221.239C90.8353 219.476 85.0915 218.362 81.9979 220.688C78.9042 223.002 87.4063 215.712 95.5839 216.383C103.762 217.042 119.111 220.363 119.111 220.363C119.111 220.363 120.322 216.61 121.988 214.284C123.643 211.958 126.185 208.757 126.185 208.757Z" fill="#8067D5"/>
<path d="M145.85 241.013C145.85 241.013 193.481 212.482 204.51 233.506C215.002 253.506 161.87 251.624 149.387 249.19C136.904 246.756 149.387 249.958 149.387 249.958L136.569 250.651L135.801 249.407C135.801 249.407 101.771 249.19 88.9636 245.101C76.1456 241.013 75.4857 233.279 76.3727 228.53C77.2597 223.781 83.2961 214.742 99.1753 219.415C115.055 224.088 145.85 241.013 145.85 241.013Z" fill="#8E82B4"/>
<path d="M128.143 214.771C128.143 214.771 128.792 214.446 129.625 214.133C130.707 213.722 132.092 213.332 132.784 213.678C134.006 214.284 148.414 219.054 148.414 219.054C148.414 219.054 162.465 212.456 163.558 212.824C164.65 213.192 166.489 214.165 166.489 214.165L149.139 222.354L128.133 216.61V214.771H128.143Z" fill="#FCD8A7"/>
<path d="M130.62 213.797L149.268 219.66L165.278 213.549L167.106 214.533L161.492 228.822C161.492 228.822 139.014 227.113 138.646 227.535C138.279 227.968 124.433 222.343 124.433 222.343L129.138 214.327L130.62 213.797Z" fill="#FCD875"/>
<path d="M125.936 213.797L123.005 230.412L145.245 241.283L162.952 233.582L167.106 213.797L148.901 220.266L146.662 219.639L125.936 213.797Z" fill="#CD3118"/>
<path d="M145.85 219.66L143.524 240.429L145.233 241.532L148.046 239.823L150.609 219.671C150.609 219.671 148.9 220.774 148.046 220.774C147.191 220.774 145.85 219.66 145.85 219.66Z" fill="#A42822"/>
<path d="M174.461 176.165C174.461 176.165 186.944 198.589 185.84 201.909C184.737 205.219 170.599 219.476 167.278 224.884C163.968 230.293 161.091 234.825 161.091 234.825C161.091 234.825 150.047 239.13 152.037 238.027C154.028 236.924 157.229 235.269 156.018 235.485C154.806 235.701 153.141 235.269 155.023 234.49C156.905 233.722 163.092 230.845 160.767 228.746C158.441 226.648 155.239 232.391 154.136 231.948C153.032 231.504 157.673 226.756 157.997 225.317C158.333 223.879 163.19 223.219 164.628 220.569C166.067 217.918 175.348 202.786 175.24 199.908C175.131 197.031 165.959 187.761 165.959 187.761C165.959 187.761 166.781 183.899 168.858 181.13C170.924 178.372 174.461 176.165 174.461 176.165Z" fill="#FFCDB5"/>
<path d="M110.609 176.165C110.609 176.165 97.6286 200.579 99.965 203.164C102.301 205.76 120.55 218.113 125.753 221.737C130.955 225.36 136.905 230.617 136.905 230.617C157.565 235.042 138.895 229.568 140.766 229.081C142.843 228.541 148.501 228.519 144.985 227.686C142.768 227.156 139.122 227.232 140.323 226.951C141.524 226.669 142.865 225.598 140.831 225.642C138.798 225.685 131.983 225.534 133.27 222.678C134.558 219.822 139.793 223.803 140.626 222.959C141.459 222.115 135.304 219.617 134.428 218.438C133.552 217.259 128.835 218.589 126.456 216.739C124.076 214.89 111.323 203.813 110.274 201.131C109.224 198.459 119.327 187.761 119.327 187.761C119.327 187.761 118.256 183.304 116.125 180.578C114.146 178.047 110.609 176.165 110.609 176.165Z" fill="#FFCDB5"/>
<path d="M110.608 176.165L108.434 180.384C108.434 180.384 112.371 181.693 113.81 183.791C115.248 185.89 117.282 190.032 117.282 190.032L119.337 187.772C119.337 187.772 118.364 183.997 116.135 180.589C113.885 177.16 110.608 176.165 110.608 176.165Z" fill="#E79A7E"/>
<path d="M174.428 176.165L176.602 180.384C176.602 180.384 172.665 181.693 171.226 183.791C169.788 185.89 167.754 190.032 167.754 190.032L165.699 187.772C165.699 187.772 166.672 183.997 168.901 180.589C171.15 177.16 174.428 176.165 174.428 176.165Z" fill="#E79A7E"/>
<path d="M143.773 250.077C143.773 250.077 142.432 241.164 145.363 241.283C148.295 241.402 152.448 240.796 154.893 238.471C157.338 236.145 161.372 237.984 163.082 240.429C164.791 242.873 165.645 247.763 171.021 247.882C176.397 248.001 180.919 247.762 181.405 249.472C181.892 251.181 182.141 252.154 182.141 252.154C182.141 252.154 187.755 253.009 187.149 255.572C186.543 258.136 175.543 252.89 166.262 251.538C156.97 250.196 143.773 250.077 143.773 250.077Z" fill="#FFCDB5"/>
<path d="M137.424 250.315C137.424 250.315 139.014 249.093 136.688 248.844C134.363 248.595 100.289 247.373 99.0669 246.821C97.8446 246.27 97.1091 248.563 97.1091 248.563C97.1091 248.563 92.9554 248.347 92.8364 251.408C92.7174 254.458 107.98 251.776 122.031 251.408C136.082 251.04 137.424 250.315 137.424 250.315Z" fill="#FFCDB5"/>
<path d="M218.658 208.53C218.658 208.53 219.361 206.766 221.903 206.766C224.445 206.766 229.226 209.016 229.226 209.579C229.226 210.141 235.003 211.548 234.018 215.636C233.034 219.714 228.945 222.959 234.018 223.663C239.092 224.366 258.097 229.72 258.097 230.142C258.097 230.564 261.472 231.97 262.607 236.34C263.732 240.71 263.549 245.329 265.052 246.605C266.556 247.882 266.978 252.392 266.415 255.064C265.853 257.736 263.851 259.715 261.894 259.715C259.936 259.715 257.123 259.012 258.67 258.028C260.217 257.044 263.462 256.762 263.04 254.794C262.618 252.825 261.775 251.278 256.983 248.314C252.191 245.35 250.925 242.538 250.925 242.538C250.925 242.538 248.362 242.744 244.294 243.057C240.227 243.371 237.263 242.538 237.263 242.538C237.263 242.538 237.263 248.455 234.732 252.111C232.201 255.767 229.237 257.747 229.237 257.747C229.237 257.747 229.519 259.715 226.706 259.715C223.894 259.715 219.805 260.559 220.93 258.169C222.055 255.778 225.181 256.2 225.181 256.2C225.181 256.2 229.475 252.36 229.237 249.169C228.999 245.967 228.534 242.408 228.534 242.408C228.534 242.408 221.211 239.877 219.946 234.523C218.68 229.168 219.242 224.809 219.242 224.809C219.242 224.809 215.727 224.809 214.31 222.7C212.904 220.591 213.639 218.384 213.639 218.384L218.658 208.53Z" fill="#FEFEFE"/>
<path d="M256.691 225.653L260.617 234.501C260.617 234.501 266.112 220.417 264.836 213.808C263.57 207.188 260.574 203.532 256.009 202.407C252.256 201.477 257.416 204.246 259.038 206.918C261.288 210.617 261.742 213.019 260.466 218.373C259.211 223.716 256.691 225.653 256.691 225.653Z" fill="#7A5A49"/>
<path d="M214.159 202.407L220.216 208.887C220.216 208.887 225.571 211.98 225.149 214.241C224.727 216.491 221.633 218.752 217.544 218.892C213.466 219.033 212.893 220.58 212.893 220.58L213.878 217.627C213.878 217.627 211.909 213.83 212.19 210.444C212.471 207.059 212.471 205.934 212.893 204.387C213.315 202.829 214.159 202.407 214.159 202.407Z" fill="#7A5A49"/>
<path d="M224.435 206.766C224.435 206.766 227.669 202.256 229.086 202.396C230.492 202.537 231.055 210.001 231.055 210.001L234.008 212.673C234.008 212.673 233.305 215.766 230.07 214.219C226.836 212.673 225.895 210.282 225.17 208.519C224.435 206.766 224.435 206.766 224.435 206.766Z" fill="#EC9042"/>
<path d="M231.898 220.569V221.553C231.898 221.553 228.383 225.209 243.018 228.595C257.653 231.981 257.524 236.621 257.524 236.621C257.524 236.621 263.159 238.73 261.602 233.246C260.044 227.762 256.107 224.095 251.044 223.111C245.971 222.126 232.883 220.58 232.883 220.58H231.898V220.569Z" fill="#EC9042"/>
<path d="M220.909 237.021C220.909 237.021 224.143 244.366 224.424 249.72C224.705 255.075 224.424 256.2 224.424 256.2C224.424 256.2 229.638 252.403 229.216 248.174C228.794 243.955 228.513 242.397 228.513 242.397L220.909 237.021Z" fill="#7A5A49"/>
<path d="M240.206 243.371C240.206 243.371 240.065 247.168 241.753 248.585C243.44 249.991 243.299 252.955 241.753 253.798C240.206 254.642 234.711 254.642 235.414 257.033C236.117 259.423 241.471 259.704 245.127 256.189C248.784 252.673 248.502 248.585 248.784 245.772C249.065 242.96 250.893 242.538 250.893 242.538L240.206 243.371Z" fill="#7A5A49"/>
<path d="M228.113 217.432C228.188 217.508 228.253 217.573 228.318 217.637C229.357 218.611 230.244 218.968 230.2 219.357C230.157 219.779 229.573 222.581 228.61 222.743C227.648 222.905 225.517 221.11 225.517 220.353C225.517 219.595 228.113 218.384 227.864 217.67C227.615 216.956 225.733 216.664 225.809 215.788C225.895 214.912 229.075 214.198 229.227 214.868C229.378 215.539 228.535 216.75 228.329 217.086C228.113 217.432 228.113 217.432 228.113 217.432Z" fill="#FBA498"/>
<path opacity="0.5" d="M232.677 217.086C232.677 217.086 232.071 218.33 231.044 218.47C230.016 218.6 228.069 217.464 228.069 217.464C228.069 217.464 226.425 220.937 222.661 220.104" stroke="black" stroke-width="0.2" stroke-miterlimit="10"/>
<path opacity="0.6" d="M231.52 215.507L241.633 211.483" stroke="black" stroke-width="0.2" stroke-miterlimit="10"/>
<path opacity="0.6" d="M231.704 216.383L238.237 215.377" stroke="black" stroke-width="0.2" stroke-miterlimit="10"/>
<path opacity="0.6" d="M231.834 217.086H242.802" stroke="black" stroke-width="0.2" stroke-miterlimit="10"/>
<path opacity="0.6" d="M222.39 219.087L206.479 222.883" stroke="black" stroke-width="0.2" stroke-miterlimit="10"/>
<path opacity="0.6" d="M223.753 219.271L213.001 224.376" stroke="black" stroke-width="0.2" stroke-miterlimit="10"/>
<path opacity="0.6" d="M223.082 217.886L211.573 218.654" stroke="black" stroke-width="0.2" stroke-miterlimit="10"/>
<path opacity="0.18" d="M225.516 232.792C225.267 235.518 226.479 239.325 227.193 239.996C227.907 240.667 228.523 242.397 228.523 242.397" stroke="black" stroke-width="0.3" stroke-miterlimit="10"/>
<path opacity="0.59" d="M229.541 212.553C230.904 212.932 231.996 212.196 231.996 212.196" stroke="black" stroke-width="0.2" stroke-miterlimit="10"/>
<path opacity="0.18" d="M248.233 235.777C248.189 238.276 249.823 241.608 250.656 242.149C251.488 242.689 252.3 244.193 252.3 244.193" stroke="black" stroke-width="0.3" stroke-miterlimit="10"/>
<path opacity="0.18" d="M236.366 232.035C237.664 234.739 238.032 239.087 237.642 240.028C237.242 240.969 237.361 242.96 237.361 242.96" stroke="black" stroke-width="0.3" stroke-miterlimit="10"/>
<path d="M216.993 205.706C218.561 207.902 220.248 208.465 219.524 209.243C218.788 210.033 216.657 210.877 216.149 212.618C215.64 214.36 214.743 216.61 213.953 214.609C213.163 212.618 212.038 208.735 213.055 206.431C214.072 204.127 214.234 201.715 215.413 203.11C216.603 204.527 216.993 205.706 216.993 205.706Z" fill="#FFCEC2"/>
<path d="M227.669 208.172C227.107 206.539 227.896 204.917 228.232 203.738C228.567 202.559 228.621 201.325 229.692 203.121C230.763 204.917 231.434 205.933 231.26 207.34C231.087 208.746 231.931 210.487 230.806 209.698C229.681 208.908 229.292 208.627 228.502 208.681" fill="#FFCEC2"/>
<path opacity="0.59" d="M220.195 215.874C221.601 215.701 222.326 214.609 222.326 214.609" stroke="black" stroke-width="0.2" stroke-miterlimit="10"/>
<path d="M155.455 134.986C154.34 136.046 153.27 136.695 153.616 135.775C153.962 134.856 154.87 133.168 155.736 133.698C156.601 134.228 155.455 134.986 155.455 134.986Z" fill="#EBB4A1"/>
<path d="M147.731 146.516C147.775 146.516 144.151 148.896 141.858 148.669C139.878 148.474 138.353 147.155 138.353 147.155C138.353 147.155 139.51 151.189 141.144 151.06C142.788 150.941 144.237 150.8 145.59 149.318C146.952 147.814 147.731 146.516 147.731 146.516Z" fill="#EBB4A1"/>
<path d="M151.16 136.355C151.218 135.779 150.204 135.205 148.896 135.075C147.588 134.945 146.482 135.306 146.424 135.883C146.366 136.459 147.38 137.033 148.688 137.163C149.996 137.294 151.103 136.932 151.16 136.355Z" fill="#E7A69B"/>
<path d="M136.117 136.046C136.174 135.469 135.161 134.896 133.853 134.765C132.545 134.635 131.438 134.997 131.381 135.573C131.323 136.15 132.337 136.723 133.644 136.854C134.952 136.984 136.059 136.622 136.117 136.046Z" fill="#E7A69B"/>
<path d="M141.426 130.129C141.393 132.184 140.474 134.683 140.474 134.683C140.474 134.683 139.587 136.857 140.917 137.008C142.248 137.149 142.789 136.933 142.789 136.933" stroke="#EBB4A1" stroke-width="0.3" stroke-miterlimit="10"/>
<path d="M130.155 127.771C130.641 127.122 132.156 125.78 133.594 125.694C135.725 125.564 138.722 125.683 138.711 126.483C138.689 127.403 138.397 127.933 137.402 127.598C136.396 127.251 135.574 127.057 134.016 127.154C132.459 127.241 130.155 127.771 130.155 127.771Z" fill="#39384E"/>
<path d="M153.432 128.214C152.978 127.511 151.853 126.483 150.49 126.126C148.348 125.575 144.757 125.402 144.724 126.224C144.67 127.165 144.93 127.738 145.99 127.468C147.05 127.197 147.915 127.057 149.505 127.273C151.106 127.489 153.432 128.214 153.432 128.214Z" fill="#39384E"/>
<path d="M138.678 131.925C138.678 131.925 136.893 132.898 135.411 132.844C133.94 132.79 132.48 131.384 132.674 130.778C132.858 130.172 132.826 130.335 134.199 129.913C135.573 129.48 136.125 129.621 137.196 130.226C138.256 130.821 138.678 131.925 138.678 131.925Z" fill="#F9E6D3"/>
<path d="M138.873 132.098C138.873 132.098 137.997 129.848 136.093 129.339C134.092 128.82 133.302 130.226 131.777 129.685C130.252 129.145 130.252 129.145 130.252 129.145C130.252 129.145 132.329 130.8 132.686 130.767C133.518 130.691 133.973 130.032 135.401 130.097C136.818 130.151 138.873 132.098 138.873 132.098Z" fill="#06070D"/>
<path d="M135.684 132.628C136.432 132.496 136.915 131.693 136.763 130.834C136.612 129.975 135.883 129.386 135.136 129.518C134.389 129.649 133.906 130.453 134.057 131.312C134.209 132.17 134.937 132.76 135.684 132.628Z" fill="#06070D"/>
<path d="M136.033 131.228C136.239 131.192 136.372 130.972 136.331 130.737C136.29 130.501 136.089 130.34 135.883 130.376C135.677 130.412 135.544 130.633 135.585 130.868C135.627 131.103 135.827 131.265 136.033 131.228Z" fill="#FBF2F7"/>
<path d="M144.79 131.968C144.79 131.968 146.499 133.082 147.97 133.136C149.442 133.201 150.988 131.903 150.848 131.286C150.696 130.67 150.729 130.832 149.387 130.291C148.046 129.75 147.473 129.859 146.38 130.367C145.288 130.897 144.79 131.968 144.79 131.968Z" fill="#F9E6D3"/>
<path d="M144.584 132.119C144.584 132.119 145.612 129.934 147.559 129.577C149.593 129.22 150.177 130.378 151.767 130.096C152.913 129.891 153.595 129.88 153.595 129.88C153.595 129.88 151.064 131.286 150.847 131.286C150.015 131.297 149.614 130.464 148.197 130.388C146.769 130.345 144.584 132.119 144.584 132.119Z" fill="#06070D"/>
<path d="M149.394 131.599C149.55 130.741 149.073 129.935 148.326 129.798C147.58 129.662 146.848 130.246 146.691 131.104C146.534 131.962 147.012 132.769 147.758 132.905C148.504 133.042 149.237 132.457 149.394 131.599Z" fill="#06070D"/>
<path d="M148.985 131.127C149.028 130.892 148.896 130.671 148.69 130.634C148.485 130.596 148.283 130.756 148.24 130.992C148.197 131.227 148.329 131.448 148.535 131.485C148.741 131.523 148.942 131.363 148.985 131.127Z" fill="#FBF2F7"/>
<path d="M138.094 141.584C138.094 141.584 139.998 142.276 142.183 141.984C144.368 141.692 146.747 140.621 146.747 140.621C146.747 140.621 143.989 142.46 142.009 142.601C140.019 142.752 138.094 141.584 138.094 141.584Z" fill="#BA564C"/>
</g>
</svg>
