<svg width="89" height="239" viewBox="0 0 89 239" fill="none" xmlns="http://www.w3.org/2000/svg">
<g id="illustration" opacity="0.6">
<g id="Group">
<path id="Vector" d="M9.41253 2.29454C14.1634 -0.392508 18.0924 1.67584 20.8788 2.29454C23.6697 2.91324 27.0793 4.77385 30.6922 7.97573C34.3095 11.1776 33.6863 17.893 35.443 21.1987C37.1998 24.5045 41.5397 27.7064 45.8796 30.1857C50.2196 32.665 51.046 38.6578 51.046 38.6578C51.046 38.6578 53.8369 43.6164 54.144 46.4073C54.4556 49.1982 56.5194 59.3232 59.9291 63.6632C63.3387 68.0031 61.171 74.0997 56.8311 76.5791C52.4911 79.0584 50.3234 78.6474 50.0118 80.7112C49.7002 82.7796 50.2196 88.253 44.1229 90.5246C38.0262 92.7962 20.9781 92.9001 16.3311 93.4194C11.6796 93.9342 13.5402 94.8645 8.47771 94.0381C3.41521 93.2117 -3.81498 91.6627 -2.47371 85.8776C-1.13245 80.0925 -5.3685 76.8907 -12.391 74.2036C-19.4134 71.5166 -25.4107 65.9392 -25.6139 60.4613C-25.8172 54.9833 -19.725 52.9195 -13.8361 49.3021C-7.94716 45.6848 -7.01686 43.5171 -10.842 40.4145C-14.6625 37.3165 -16.7309 35.0404 -10.3271 31.2198C-3.92336 27.3993 -1.23631 26.0535 -0.202139 24.089C0.832037 22.1245 -3.09693 19.6452 -2.27049 16.5472C-1.44405 13.4492 3.93005 10.7621 4.95971 7.65961C5.98937 4.55708 9.41253 2.29454 9.41253 2.29454Z" fill="#49476A"/>
<path id="Vector_2" d="M10.3704 28.8174C11.3865 29.9825 12.3303 29.3141 12.3303 29.3141C12.3303 29.3141 12.7458 32.1141 14.6651 33.4102C16.5844 34.7063 17.3612 35.3792 17.3612 35.3792C17.3612 35.3792 17.6818 36.9643 17.5689 38.4366C17.4786 39.5972 17.7767 41.4939 13.2651 44.0861C8.7536 46.6784 5.38464 47.4054 5.07303 49.3744C4.76142 51.3434 4.40013 54.3511 4.40013 54.3511C4.40013 54.3511 2.58468 58.2394 4.40013 57.6704C6.21558 57.1014 25.1875 54.9743 25.1875 54.9743L34.1022 49.9977L34.7254 43.8287C34.7254 43.8287 35.606 43.8287 32.4448 43.2597C29.2836 42.6907 25.3411 42.641 25.1378 40.672C24.9301 38.6985 24.7766 36.7837 24.7766 36.7837C24.7766 36.7837 27.1384 35.5689 28.5881 33.6089C30.0423 31.6399 31.361 29.269 31.4648 25.7961C31.5687 22.3233 31.9842 19.2117 30.4261 16.8815C28.8726 14.5467 28.1952 12.9931 24.8262 11.4396C21.4573 9.88609 20.9379 9.26288 19.4341 11.0241C17.9302 12.7854 15.4419 16.3621 14.8187 18.0737C14.1955 19.7853 11.811 19.5233 11.9148 21.0272C12.0187 22.531 12.2264 24.9652 12.2264 24.9652C12.2264 24.9652 12.0323 24.5045 10.682 23.3123C10.2168 22.9013 8.06717 22.2465 7.95427 24.5271C7.85943 26.2794 9.57102 27.9051 10.3704 28.8174Z" fill="#F0C6B4"/>
<path id="Vector_3" d="M13.2065 84.4867L13.5317 90.5247L18.987 96.4317L29.5726 95.9123L33.9215 92.4079C33.9215 92.4079 32.7519 90.0686 32.8828 88.1854C33.0138 86.3022 33.9215 83.8996 33.9215 83.8996L19.2445 82.73L13.5317 84.4822H13.2065V84.4867Z" fill="#F0C6B4"/>
<path id="Vector_4" d="M23.047 65.2258L25.2282 86.248C25.2282 86.248 17.6955 87.1286 14.0284 86.8351C10.3614 86.5415 9.37239 84.6538 9.37239 84.6538L10.4608 78.3088L6.99243 68.2019L23.047 65.2258Z" fill="#4D599C"/>
<path id="Vector_5" d="M47.0006 47.0848C47.0006 47.0848 55.1159 48.837 55.834 47.9925C56.5475 47.148 69.599 22.4091 70.7054 19.8756C71.8073 17.3421 75.7724 10.1345 76.4182 7.73196C77.0685 5.32942 83.6258 -0.189195 84.082 0.00499492C84.5381 0.199185 81.0968 4.09654 81.0968 4.09654C81.0968 4.09654 84.9942 2.99462 84.8632 3.57719C84.7323 4.15976 81.6162 5.13523 80.8394 5.97973C80.0581 6.82423 82.7859 5.78554 82.8536 6.49908C82.9168 7.21261 79.9949 7.53777 78.8298 9.68289C77.6601 11.828 76.233 13.1873 77.4027 13.1873C78.5724 13.1873 79.5478 13.1241 81.1059 11.6925C82.6639 10.2609 84.6781 9.74612 83.5084 11.3042C82.3388 12.8622 80.8439 13.9686 80.4556 15.3957C80.0672 16.8228 79.2227 17.8615 77.7279 18.6427C76.233 19.424 74.2866 19.8756 73.7673 21.6956C73.2479 23.5156 62.8565 52.2783 60.9733 55.2047C59.0901 58.1266 56.6243 57.0246 52.4018 57.0246C48.1793 57.0246 43.6361 56.7627 43.6361 56.7627L40.5833 45.5268L47.0006 47.0848Z" fill="#F0C6B4"/>
<path id="Vector_6" d="M4.531 72.0857C4.531 72.0857 2.51684 86.7629 1.8033 88.1267C1.08976 89.4906 -6.11784 110.323 -7.41846 113.511C-8.71908 116.7 -9.821 119.622 -10.4713 120.855C-11.1216 122.087 -12.8106 125.402 -12.2235 127.674C-11.641 129.945 -10.5345 134.818 -10.0784 133.518C-9.62229 132.217 -10.0784 130.402 -10.0784 130.402C-10.0784 130.402 -9.49584 131.115 -8.9765 130.79C-8.45715 130.465 -9.95196 127.999 -9.30165 126.242C-8.65134 124.49 -8.58812 123.84 -7.61266 123.058C-6.63719 122.277 -6.51073 122.02 -5.99139 122.733C-5.47204 123.447 -8.45715 126.888 -8.00555 127.602C-7.55394 128.315 -3.45789 124.029 -3.2637 122.146C-3.06951 120.263 -3.90498 118.317 -3.9095 116.628C-3.91401 114.939 -1.05535 108.187 3.42457 100.46C7.90448 92.7331 9.2051 88.7725 12.4521 81.1088C15.6992 73.445 16.9998 71.3044 16.9998 71.3044L5.70065 69.0328L4.531 72.0857Z" fill="#F0C6B4"/>
<path id="Vector_7" d="M33.3525 43.174L47.524 46.3442C47.524 46.3442 48.0208 49.1171 47.524 52.6893C47.0273 56.2615 46.3363 58.8356 46.3363 58.8356L34.5403 57.7472L33.3525 43.174Z" fill="#4D599C"/>
<path id="Vector_8" d="M53.5664 212.074C53.738 208.891 56.5289 214.36 56.8675 217.412C57.1114 219.576 57.1927 221.698 57.1927 221.698L61.2841 222.868L64.6621 222.086L66.6084 220.917C66.6084 220.917 64.7885 216.762 63.6866 214.098C62.5847 211.433 61.3248 207.193 61.3248 207.193L53.5664 212.074Z" fill="#F0C6B4"/>
<path id="Vector_9" d="M3.52401 54.2247C3.52401 54.2247 19.8179 56.0808 25.9235 52.5402C34.3414 47.6629 33.5782 45.8745 33.5782 45.8745C35.9446 46.6151 40.9484 51.208 41.391 56.2343C41.698 59.6891 41.3729 61.5723 39.3858 66.4135C37.1956 71.7559 37.5252 72.1985 38.0672 76.5926C38.5775 80.7293 39.44 84.3466 39.44 84.3466C39.44 84.3466 32.9595 86.433 25.8242 86.2343C18.6889 86.0356 18.2914 86.135 18.4901 80.2867C18.6888 74.4384 19.0863 74.6372 20.7707 74.7365C22.4552 74.8359 19.8766 68.0979 19.8766 68.0979L19.4792 73.7475L15.9115 73.6481C15.9115 73.6481 7.09168 73.7475 4.21496 72.5598C1.34277 71.3721 -0.441066 70.7759 0.547945 68.2966C1.53696 65.8173 2.92789 57.0969 3.02724 56.2072C3.1266 55.313 3.52401 54.2247 3.52401 54.2247Z" fill="#6474B5"/>
<g id="Group_2">
<path id="Vector_10" d="M32.007 105.103C32.007 105.103 46.2957 134.055 48.5221 138.323C50.7485 142.59 49.9131 146.488 50.1931 149.55C50.4731 152.611 56.4117 180.263 59.2884 193.996C62.1651 207.73 63.2806 209.586 63.2806 209.586C63.2806 209.586 61.1445 211.243 59.0129 212.408C56.8768 213.574 53.9098 213.944 52.8892 213.944C51.8685 213.944 43.0532 189.259 39.4359 179.703C35.8185 170.147 31.8264 165.97 33.0321 159.521C34.2379 153.072 35.0734 153.352 32.0115 149.73C28.9496 146.113 26.5155 142.635 25.1426 138.964C23.7743 135.297 19.6692 119.292 19.6692 119.292L23.1962 105.839L32.007 105.103Z" fill="#7C70B0"/>
<path id="Vector_11" d="M13.3552 89.6035C13.3552 89.6035 18.2732 94.1512 22.1706 94.3363C26.0679 94.5215 31.0807 94.7066 32.6568 93.686C34.2329 92.6654 34.2329 92.6654 34.2329 92.6654C34.2329 92.6654 35.3529 96.3505 35.1587 99.9046C34.9826 103.233 34.8787 105.378 30.6111 115.399C26.3434 125.42 20.1248 147.693 18.919 151.591C17.7132 155.488 14.7417 156.138 11.7746 161.427C8.80305 166.715 -11.7043 204.203 -11.7043 204.203C-11.7043 204.203 -12.8243 205.223 -15.6017 203.647C-18.3791 202.071 -20.1494 199.565 -18.7584 195.573C-17.3675 191.58 -11.2437 172.189 -10.0379 167.365C-8.83213 162.542 -6.04572 155.579 -3.35867 154.097C-0.667105 152.611 1.21609 145.562 2.318 140.269C3.41992 134.976 8.03983 118.836 8.04887 116.235C8.0579 113.638 4.81086 107.604 5.36634 103.522C5.92181 99.4395 6.75728 95.7273 9.54368 93.2209C12.3346 90.719 13.3552 89.6035 13.3552 89.6035Z" fill="#8C81B0"/>
</g>
<g id="Group_3">
<path id="Vector_12" d="M57.2824 220.894C57.2824 220.894 56.6682 222.551 56.6592 223.956C56.6502 225.36 58.9172 230.355 62.6972 230.03C66.4771 229.705 70.388 224.692 70.388 224.692C70.388 224.692 71.1647 224.155 68.7351 222.307C66.3055 220.465 66.3055 220.465 66.3055 220.465C66.3055 220.465 64.5487 222.023 62.7513 222.362C60.9585 222.696 57.2824 220.894 57.2824 220.894Z" fill="white"/>
<path id="Vector_13" d="M53.6335 234.23C52.369 234.532 52.2832 238.077 54.0806 238.19C55.8825 238.299 85.1555 237.883 86.9167 237.816C88.6735 237.743 88.7728 233.981 87.2012 234.085C85.6296 234.185 53.6335 234.23 53.6335 234.23Z" fill="#D2D8EE"/>
<path id="Vector_14" d="M68.7169 221.54C68.7169 221.54 65.1131 225.929 61.7893 226.349C58.4655 226.769 56.5371 222.687 55.9003 222.718C55.2636 222.75 53.7462 226.124 53.1952 228.878C52.6443 231.633 52.9423 234.546 52.9423 234.546C52.9423 234.546 77.8078 234.284 82.7845 234.357C87.7657 234.429 88.7773 234.713 87.296 232.455C85.9592 230.423 79.0406 230.771 75.7755 228.44C72.5104 226.096 68.7169 221.54 68.7169 221.54Z" fill="#49476A"/>
</g>
<g id="Group_4">
<path id="Vector_15" d="M9.74285 26.2974C10.917 27.6658 12.0867 28.5464 11.7931 27.4309C11.4951 26.3155 10.6325 24.2381 9.56673 24.7574C8.50096 25.2768 9.74285 26.2974 9.74285 26.2974Z" fill="#EBB4A1"/>
<path id="Vector_16" d="M17.4974 35.5553C17.4657 35.5553 20.1077 37.6959 21.9141 37.6959C23.4722 37.6959 24.7728 36.7792 24.7728 36.7792C24.7728 36.7792 23.558 39.8456 22.2844 39.6243C21.0109 39.403 19.8909 39.1817 18.947 37.9082C18.0032 36.6346 17.4974 35.5553 17.4974 35.5553Z" fill="#EBB4A1"/>
<path id="Vector_17" d="M17.5646 28.7226C18.5947 28.7226 19.4297 28.3526 19.4297 27.8961C19.4297 27.4397 18.5947 27.0697 17.5646 27.0697C16.5345 27.0697 15.6995 27.4397 15.6995 27.8961C15.6995 28.3526 16.5345 28.7226 17.5646 28.7226Z" fill="#E7A69B"/>
<path id="Vector_18" d="M28.7675 27.8962C29.7975 27.8962 30.6326 27.5262 30.6326 27.0697C30.6326 26.6133 29.7975 26.2433 28.7675 26.2433C27.7374 26.2433 26.9023 26.6133 26.9023 27.0697C26.9023 27.5262 27.7374 27.8962 28.7675 27.8962Z" fill="#E7A69B"/>
<path id="Vector_19" d="M23.5037 23.8273C23.594 25.4485 24.3933 27.3769 24.3933 27.3769C24.3933 27.3769 25.1566 29.0613 24.1179 29.2149C23.0792 29.3684 22.6501 29.2149 22.6501 29.2149" stroke="#EBB4A1" stroke-width="0.5" stroke-miterlimit="10"/>
<path id="Vector_20" d="M32.4538 20.115C31.9796 19.5143 30.5344 18.2905 29.1841 18.2408C27.179 18.164 24.3746 18.3537 24.4152 19.1034C24.4604 19.9614 24.7449 20.4582 25.6752 20.1195C26.6055 19.7808 27.3732 19.573 28.8319 19.6227C30.2861 19.6679 32.4538 20.115 32.4538 20.115Z" fill="#39384E"/>
<path id="Vector_21" d="M12.3486 20.1286C12.8228 19.5279 13.9293 18.7015 15.1938 18.5073C17.1763 18.2002 20.4279 18.3628 20.3917 19.117C20.3466 19.975 20.0621 20.4718 19.1318 20.1331C18.2015 19.7944 17.4337 19.5866 15.975 19.6363C14.5163 19.686 12.3486 20.1286 12.3486 20.1286Z" fill="#39384E"/>
<path id="Vector_22" opacity="0.73" d="M20.0803 31.7935C20.0803 31.7935 19.7958 31.7483 20.0713 32.1502C20.3468 32.5522 21.4442 34.5211 23.6209 34.4353C25.7977 34.3495 27.0577 32.1728 27.0531 31.7257C27.0486 31.4593 24.8899 32.0283 23.35 31.9515C21.801 31.8748 20.0803 31.7935 20.0803 31.7935Z" fill="#E7A69B"/>
<path id="Vector_23" d="M21.6472 32.498C21.6472 32.498 21.4937 32.4799 21.6427 32.6516C21.7918 32.8232 22.3924 33.6677 23.5711 33.6361C24.7498 33.6045 25.4227 32.6832 25.4181 32.4935C25.4136 32.3806 24.2485 32.6154 23.413 32.5793C22.5821 32.5387 21.6472 32.498 21.6472 32.498Z" fill="#F5D9CC"/>
<g id="Group_5">
<path id="Vector_24" d="M25.9417 24.0711C25.9417 24.0711 27.4275 24.8252 28.6423 24.771C29.8571 24.7168 31.0494 23.5924 30.8868 23.1227C30.7242 22.6485 30.7558 22.784 29.6178 22.4498C28.4797 22.1156 28.0191 22.2376 27.152 22.7208C26.2849 23.204 25.9417 24.0711 25.9417 24.0711Z" fill="#F9E6D3"/>
<path id="Vector_25" d="M25.7791 24.211C25.7791 24.211 26.479 22.4272 28.0642 22.0162C29.7126 21.5872 30.372 22.6936 31.632 22.2601C32.892 21.8265 32.892 21.8265 32.892 21.8265C32.892 21.8265 31.1849 23.1407 30.8868 23.1181C30.1958 23.0639 29.821 22.5536 28.6423 22.6078C27.4636 22.6665 25.7791 24.211 25.7791 24.211Z" fill="#06070D"/>
<path id="Vector_26" d="M28.475 24.6085C29.1035 24.6085 29.613 24.0504 29.613 23.362C29.613 22.6736 29.1035 22.1156 28.475 22.1156C27.8464 22.1156 27.3369 22.6736 27.3369 23.362C27.3369 24.0504 27.8464 24.6085 28.475 24.6085Z" fill="#06070D"/>
<path id="Vector_27" d="M28.0006 23.606C28.1727 23.606 28.3122 23.4543 28.3122 23.2673C28.3122 23.0802 28.1727 22.9286 28.0006 22.9286C27.8285 22.9286 27.689 23.0802 27.689 23.2673C27.689 23.4543 27.8285 23.606 28.0006 23.606Z" fill="#FBF2F7"/>
</g>
<g id="Group_6">
<path id="Vector_28" d="M20.0529 24.0304C20.0529 24.0304 18.6439 24.9155 17.429 24.9743C16.2142 25.033 14.9272 24.0214 15.0446 23.5381C15.162 23.0549 15.1439 23.1859 16.2458 22.7523C17.3478 22.3188 17.8174 22.3956 18.7252 22.7975C19.6329 23.1994 20.0529 24.0304 20.0529 24.0304Z" fill="#F9E6D3"/>
<path id="Vector_29" d="M20.2243 24.1523C20.2243 24.1523 19.3663 22.4407 17.7495 22.1742C16.0696 21.8988 15.5909 22.8246 14.2767 22.6078C13.3283 22.4542 12.7683 22.4407 12.7683 22.4407C12.7683 22.4407 14.8638 23.5336 15.0444 23.5336C15.7399 23.5291 16.056 22.8742 17.2302 22.82C18.4044 22.7659 20.2243 24.1523 20.2243 24.1523Z" fill="#06070D"/>
<path id="Vector_30" d="M17.5783 24.794C18.2042 24.7362 18.6603 24.1337 18.597 23.4482C18.5338 22.7627 17.9751 22.2538 17.3493 22.3116C16.7234 22.3693 16.2673 22.9718 16.3306 23.6573C16.3938 24.3428 16.9525 24.8517 17.5783 24.794Z" fill="#06070D"/>
<path id="Vector_31" d="M17.9604 23.7545C18.1318 23.7387 18.2568 23.5748 18.2396 23.3886C18.2224 23.2023 18.0696 23.0641 17.8982 23.0799C17.7268 23.0957 17.6018 23.2595 17.619 23.4458C17.6362 23.6321 17.7891 23.7703 17.9604 23.7545Z" fill="#FBF2F7"/>
</g>
</g>
</g>
</g>
</svg>
