<svg width="24" height="19" viewBox="0 0 24 19" fill="none" xmlns="http://www.w3.org/2000/svg">
<path d="M15.531 0.320007H6.88755L6.17122 4.18635L13.9709 4.19544C17.8122 4.19544 18.9481 5.54207 18.9157 7.77772C18.899 8.92305 18.3849 10.859 18.1628 11.4867C17.5708 13.1597 16.355 15.0689 11.7958 15.0614L4.21399 15.0583L3.49609 18.9262H12.1203C15.1622 18.9262 16.4569 18.5846 17.8258 17.9731C20.863 16.6189 22.6703 13.7243 23.3939 9.94677C24.4724 4.32157 23.1296 0.320007 15.531 0.320007Z"/>
<path d="M3.4643 7.60071C1.17976 7.60071 0.852347 9.08996 0.636177 9.98963C0.353048 11.1683 0.260254 11.6455 0.260254 11.6455H9.19068C11.4752 11.6455 11.8026 10.1563 12.0188 9.25661C12.3019 8.07797 12.3947 7.60071 12.3947 7.60071L3.4643 7.60071Z"/>
</svg>
