<svg width="16" height="14" viewBox="0 0 16 14" fill="none" xmlns="http://www.w3.org/2000/svg">
<g id="2 User">
<path id="Fill 1" d="M6.012 9.14331C3.03914 9.14331 0.5 9.60254 0.5 11.438C0.5 13.275 3.023 13.75 6.012 13.75C8.98485 13.75 11.524 13.2908 11.524 11.4553C11.524 9.61835 9.001 9.14331 6.012 9.14331Z" fill="#6C69FC"/>
<path id="Fill 3" d="M6.01202 7.39362C8.03673 7.39362 9.65928 5.80463 9.65928 3.82181C9.65928 1.83899 8.03673 0.25 6.01202 0.25C3.98804 0.25 2.36475 1.83899 2.36475 3.82181C2.36475 5.80463 3.98804 7.39362 6.01202 7.39362Z" fill="#6C69FC"/>
<path id="Fill 5" d="M11.1301 3.88655C11.1301 4.89628 10.8204 5.83847 10.2773 6.6211C10.2208 6.70159 10.2707 6.81011 10.3691 6.82736C10.5056 6.84964 10.6457 6.86329 10.7888 6.86617C12.2125 6.90282 13.4902 6.0052 13.8432 4.65337C14.3664 2.64755 12.8312 0.846558 10.8754 0.846558C10.6634 0.846558 10.4601 0.868118 10.2619 0.907645C10.2348 0.913394 10.2054 0.92633 10.1907 0.949328C10.1717 0.978794 10.1856 1.01688 10.2047 1.04204C10.7925 1.84911 11.1301 2.83153 11.1301 3.88655Z" fill="#6C69FC"/>
<path id="Fill 7" d="M15.3344 9.37706C15.0739 8.83302 14.445 8.46003 13.488 8.27677C13.0367 8.16897 11.8141 8.01589 10.6773 8.03745C10.6605 8.03961 10.6509 8.05111 10.6495 8.05829C10.6473 8.06979 10.6524 8.08704 10.6744 8.09926C11.1998 8.35367 13.2304 9.46043 12.975 11.7947C12.964 11.8967 13.047 11.983 13.1504 11.9686C13.6502 11.8989 14.9359 11.6279 15.3344 10.7857C15.5553 10.3401 15.5553 9.82264 15.3344 9.37706Z" fill="#6C69FC"/>
</g>
</svg>
