<svg width="42" height="42" viewBox="0 0 42 42" fill="none" xmlns="http://www.w3.org/2000/svg">
<rect x="0.848877" y="0.75293" width="40.5001" height="40.4999" rx="20.25" fill="white"/>
<rect width="28.9943" height="28.9943" rx="14.4972" transform="matrix(-1 0 0 1 35.5959 6.50586)" fill="url(#paint0_linear_5664_1268)"/>
<path d="M23.3847 15.8257H18.5743L18.1756 17.9775L22.5164 17.9825C24.6543 17.9825 25.2864 18.732 25.2684 19.9762C25.2591 20.6136 24.973 21.6911 24.8494 22.0404C24.5199 22.9715 23.8433 24.0341 21.3059 24.0299L17.0863 24.0282L16.6868 26.1808H21.4865C23.1794 26.1808 23.9 25.9907 24.6618 25.6504C26.3522 24.8967 27.358 23.2857 27.7607 21.1834C28.3609 18.0527 27.6136 15.8257 23.3847 15.8257Z" fill="white"/>
<path d="M16.6688 19.8774C15.3974 19.8774 15.2151 20.7063 15.0948 21.207C14.9373 21.8629 14.8856 22.1286 14.8856 22.1286H19.8558C21.1272 22.1286 21.3094 21.2997 21.4297 20.799C21.5873 20.1431 21.639 19.8774 21.639 19.8774H16.6688Z" fill="white"/>
<defs>
<linearGradient id="paint0_linear_5664_1268" x1="-0.805364" y1="28.2313" x2="25.628" y2="-2.86183" gradientUnits="userSpaceOnUse">
<stop stop-color="#6A67FB"/>
<stop offset="1" stop-color="#8D71FF"/>
</linearGradient>
</defs>
</svg>
