<svg width="36" height="36" viewBox="0 0 36 36" fill="none" xmlns="http://www.w3.org/2000/svg">
<rect x="0.675903" y="0.580078" width="34.8458" height="34.8457" fill="white"/>
<rect width="28.9943" height="28.9943" rx="14.4972" transform="matrix(-1 0 0 1 32.5959 3.50586)" fill="url(#paint0_linear_5664_1268)"/>
<path d="M20.3847 12.8257H15.5743L15.1756 14.9775L19.5164 14.9825C21.6543 14.9825 22.2864 15.732 22.2684 16.9762C22.2591 17.6136 21.973 18.6911 21.8494 19.0404C21.5199 19.9715 20.8433 21.0341 18.3059 21.0299L14.0863 21.0282L13.6868 23.1808H18.4865C20.1794 23.1808 20.9 22.9907 21.6618 22.6504C23.3522 21.8967 24.358 20.2857 24.7607 18.1834C25.3609 15.0527 24.6136 12.8257 20.3847 12.8257Z" fill="white"/>
<path d="M13.6688 16.8774C12.3974 16.8774 12.2151 17.7063 12.0948 18.207C11.9373 18.8629 11.8856 19.1286 11.8856 19.1286H16.8558C18.1272 19.1286 18.3094 18.2997 18.4297 17.799C18.5873 17.1431 18.639 16.8774 18.639 16.8774H13.6688Z" fill="white"/>
<defs>
<linearGradient id="paint0_linear_5664_1268" x1="-0.805364" y1="28.2313" x2="25.628" y2="-2.86183" gradientUnits="userSpaceOnUse">
<stop stop-color="#6A67FB"/>
<stop offset="1" stop-color="#8D71FF"/>
</linearGradient>
</defs>
</svg>
