<svg id="vector" xmlns="http://www.w3.org/2000/svg" width="512" height="512" viewBox="0 0 512 512"><defs><clipPath id="clip_path_0"><path d="M0,-0.001h512v512h-512z"/></clipPath></defs><g id="g_0"><path fill="#F0F0F0" d="M256,511.999C397.385,511.999 512,397.384 512,255.999C512,114.614 397.385,-0.001 256,-0.001C114.615,-0.001 0,114.614 0,255.999C0,397.384 114.615,511.999 256,511.999Z" clip-path="url(#clip_path_0)"/><path fill="#000000" d="M144.696,345.042L166.957,496.078C194.689,506.369 224.686,511.999 256,511.999C366.07,511.999 459.906,442.527 496.076,345.042H144.696Z"/><path fill="#6DA544" d="M144.696,166.956L166.957,15.92C194.689,5.629 224.686,-0.001 256,-0.001C366.07,-0.001 459.906,69.471 496.076,166.956H144.696Z"/><path fill="#A2001D" d="M0,255.999C0,366.07 69.473,459.905 166.957,496.076V15.922C69.473,52.093 0,145.928 0,255.999Z"/></g></svg>