<svg id="vector" xmlns="http://www.w3.org/2000/svg" width="744.09" height="496.06" viewBox="0 0 744.09 496.06"><path fill="#ffffff" d="M0,0h744.09v496.06h-744.09z" stroke-width="1" fill-rule="evenodd" id="path_0"/><path fill="#df0000" d="M288.18,0h167.74v496.06h-167.74z" stroke-width="1" fill-rule="evenodd" id="path_1"/><path fill="#00319c" d="M0,164.16h744.09v167.74h-744.09z" stroke-width="1" fill-rule="evenodd" id="path_2"/><path fill="#ffffff" d="m320.35,270.32 l-14.61,-10.79 -14.54,10.4 5.77,-16.48 -14.62,-10.76 17.56,-0.12 6.15,-16.22 5.59,16.33 17.74,-0.17 -14.06,10.95 5.02,16.86z" fill-rule="evenodd" id="path_3"/><path fill="#ffffff" d="m451.96,270.32 l-14.62,-10.79 -14.54,10.4 5.77,-16.48 -14.61,-10.76 17.56,-0.12 6.15,-16.22 5.59,16.33 17.74,-0.17 -14.07,10.95 5.03,16.86z" fill-rule="evenodd" id="path_4"/><path fill="#ffffff" d="m386.99,221.46 l-14.62,-10.8 -14.54,10.41 5.77,-16.49 -14.61,-10.75 17.56,-0.13 6.15,-16.22 5.59,16.33 17.74,-0.17 -14.07,10.96 5.03,16.86z" fill-rule="evenodd" id="path_5"/><path fill="#ffffff" d="m386.99,221.46 l-14.62,-10.8 -14.54,10.41 5.77,-16.49 -14.61,-10.75 17.56,-0.13 6.15,-16.22 5.59,16.33 17.74,-0.17 -14.07,10.96 5.03,16.86z" fill-rule="evenodd" id="path_6"/><path fill="#ffffff" d="m386.99,320.4 l-14.62,-10.79 -14.54,10.41 5.77,-16.49 -14.61,-10.75 17.56,-0.13 6.15,-16.22 5.59,16.33 17.74,-0.17 -14.07,10.95 5.03,16.86z" fill-rule="evenodd" id="path_7"/></svg>