<svg id="vector" xmlns="http://www.w3.org/2000/svg" width="512" height="512" viewBox="0 0 512 512"><path fill="#FFDA44" d="M256,512C397.385,512 512,397.385 512,256C512,114.615 397.385,0 256,0C114.615,0 0,114.615 0,256C0,397.385 114.615,512 256,512Z" id="path_0"/><path fill="#338AF3" d="M256,512C333.591,512 403.114,477.476 450.061,422.957H61.939C108.886,477.476 178.409,512 256,512Z" id="path_1"/><path fill="#338AF3" d="M512,256C512,114.616 397.384,0 256,0C114.616,0 0,114.616 0,256C0,279.107 3.08,301.489 8.819,322.783H503.182C508.92,301.489 512,279.107 512,256Z" id="path_2"/><path fill="#338AF3" d="M20.349,356.174C25.284,367.77 31.053,378.922 37.574,389.565H474.426C480.947,378.921 486.716,367.769 491.653,356.174H20.349Z" id="path_3"/><path fill="#F0F0F0" d="M117.317,161.463L67.301,139.389L117.317,117.315L139.39,67.3L161.463,117.315L211.478,139.389L161.463,161.463L139.39,211.478L117.317,161.463Z" id="path_4"/><path fill="#D80027" d="M139.39,94.867L153.021,125.756L183.911,139.389L153.021,153.021L139.39,183.91L125.757,153.021L94.868,139.389L125.757,125.756L139.39,94.867Z" id="path_5"/></svg>