<svg id="vector" xmlns="http://www.w3.org/2000/svg" width="512" height="512" viewBox="0 0 512 512"><defs><clipPath id="clip_path_0"><path d="M0,0.001h512v512h-512z"/></clipPath></defs><g id="g_0"><path fill="#FFDA44" d="M512,256.001C512,224.687 506.368,194.69 496.077,166.958L256,155.827L15.923,166.957C5.632,194.69 0,224.687 0,256.001C0,287.315 5.632,317.312 15.923,345.044L256,356.175L496.077,345.045C506.368,317.312 512,287.315 512,256.001Z" clip-path="url(#clip_path_0)"/><path fill="#6DA544" d="M256,512.001C366.071,512.001 459.906,442.529 496.077,345.044H15.923C52.094,442.529 145.929,512.001 256,512.001Z"/><path fill="#D80027" d="M15.923,166.958H496.078C459.906,69.473 366.071,0.001 256,0.001C145.929,0.001 52.094,69.473 15.923,166.958Z"/></g></svg>