<svg id="vector" xmlns="http://www.w3.org/2000/svg" width="512" height="512" viewBox="0 0 512 512"><defs><clipPath id="clip_path_0"><path d="M0,0h512v512h-512z"/></clipPath></defs><g id="g_0"><path fill="#F0F0F0" d="M12.089,178.086C4.247,202.655 -0,228.828 0.001,255.999C-0,283.168 4.247,309.342 12.09,333.912L256.001,345.044L499.911,333.912C507.752,309.342 512,283.167 512,256C512,228.83 507.753,202.655 499.911,178.086L256,166.956L12.089,178.086Z" clip-path="url(#clip_path_0)"/><path fill="#000000" d="M512,256C512,240.813 510.67,225.937 508.133,211.477H3.868C1.33,225.937 0,240.811 0,255.999C0,271.187 1.331,286.061 3.868,300.521H508.133C510.669,286.06 512,271.186 512,256Z"/><path fill="#338AF3" d="M256.001,511.999C370.217,511.999 466.947,437.196 499.911,333.911H12.09C45.055,437.195 141.786,511.997 256.001,511.999Z"/><path fill="#338AF3" d="M256.001,0.001C141.786,0.001 45.056,74.804 12.089,178.086L499.909,178.087C466.946,74.804 370.215,-0.001 256.001,0.001Z"/></g></svg>