<svg id="vector" xmlns="http://www.w3.org/2000/svg" width="512" height="512" viewBox="0 0 512 512"><path fill="#0052B4" d="M512,256C512,168.139 467.731,90.626 400.287,44.522L256,33.391L111.713,44.521C44.27,90.626 0,168.14 0,256C0,343.863 44.27,421.374 111.713,467.478L256,478.609L400.287,467.479C467.731,421.374 512,343.863 512,256Z" id="path_0"/><path fill="#A2001D" d="M400.287,44.522C359.202,16.436 309.524,0 256,0C202.477,0 152.798,16.436 111.713,44.522H400.287Z" id="path_1"/><path fill="#A2001D" d="M111.713,467.478C152.797,495.564 202.477,512 256,512C309.524,512 359.202,495.564 400.287,467.478H111.713Z" id="path_2"/><path fill="#F0F0F0" d="M256,378.435C323.619,378.435 378.435,323.619 378.435,256C378.435,188.381 323.619,133.565 256,133.565C188.381,133.565 133.565,188.381 133.565,256C133.565,323.619 188.381,378.435 256,378.435Z" id="path_3"/><path fill="#6DA544" d="M256,356.174C311.325,356.174 356.174,311.325 356.174,256C356.174,200.676 311.325,155.826 256,155.826C200.676,155.826 155.826,200.676 155.826,256C155.826,311.325 200.676,356.174 256,356.174Z" id="path_4"/><path fill="#F0F0F0" d="M256,322.783C292.883,322.783 322.783,292.883 322.783,256C322.783,219.117 292.883,189.217 256,189.217C219.117,189.217 189.217,219.117 189.217,256C189.217,292.883 219.117,322.783 256,322.783Z" id="path_5"/><path fill="#0052B4" d="M256,239.304L219.826,256V283.826L256,306.087L292.174,283.826V256L256,239.304Z" id="path_6"/><path fill="#FFDA44" d="M219.826,222.609H292.174V256H219.826V222.609Z" id="path_7"/></svg>