<svg id="vector" xmlns="http://www.w3.org/2000/svg" width="512" height="512" viewBox="0 0 512 512"><defs><clipPath id="clip_path_0"><path d="M0,0h512v512h-512z"/></clipPath></defs><g id="g_0"><path fill="#F0F0F0" d="M256,512C397.385,512 512,397.385 512,256C512,114.615 397.385,0 256,0C114.615,0 0,114.615 0,256C0,397.385 114.615,512 256,512Z" clip-path="url(#clip_path_0)"/><path fill="#D80027" d="M233.739,256C233.739,256 75.131,437.055 74.98,437.019C121.306,483.346 185.307,512 256,512C397.384,512 512,397.384 512,256H233.739Z"/><path fill="#0052B4" d="M74.979,74.98C-24.994,174.954 -24.994,337.045 74.979,437.02C116.293,395.707 156.026,355.974 256,256L74.979,74.98Z"/></g></svg>