<svg id="vector" xmlns="http://www.w3.org/2000/svg" width="512" height="512" viewBox="0 0 512 512"><defs><clipPath id="clip_path_0"><path d="M0,0h512v512h-512z"/></clipPath></defs><g id="g_0"><path fill="#F0F0F0" d="M256,512C397.385,512 512,397.385 512,256C512,114.615 397.385,0 256,0C114.615,0 0,114.615 0,256C0,397.385 114.615,512 256,512Z" clip-path="url(#clip_path_0)"/><path fill="#6DA544" d="M256,0C210.739,0 168.231,11.762 131.339,32.372V479.628C168.232,500.238 210.739,512 256,512C397.384,512 512,397.384 512,256C512,114.616 397.384,0 256,0Z"/><path fill="#F0F0F0" d="M132.092,31.951C115.987,40.876 100.949,51.484 87.21,63.544C88.599,62.326 90.002,61.122 91.416,59.934L287.481,256L91.415,452.066C90,450.878 88.598,449.674 87.209,448.456C100.948,460.516 115.987,471.123 132.091,480.049L512,256L132.092,31.951Z"/><path fill="#FFDA44" d="M110.47,45.382C102.663,50.788 95.165,56.605 88.02,62.822L256,256L88.019,449.178C95.164,455.395 102.662,461.213 110.469,466.618L468.178,256L110.47,45.382Z"/><path fill="#000000" d="M91.415,59.934C85.725,64.716 80.232,69.729 74.98,74.98L233.739,256L74.98,437.02C80.232,442.272 85.724,447.286 91.415,452.066L287.481,256L91.415,59.934Z"/><path fill="#D80027" d="M74.979,74.98C-24.994,174.954 -24.994,337.045 74.979,437.02C116.293,395.707 156.026,355.974 256,256L74.979,74.98Z"/></g></svg>