<svg id="vector" xmlns="http://www.w3.org/2000/svg" width="513" height="512" viewBox="0 0 513 512"><defs><clipPath id="clip_path_0"><path d="M0.988,0h512v512h-512z"/></clipPath></defs><g id="g_0"><path fill="#F0F0F0" d="M256.988,512C398.373,512 512.988,397.385 512.988,256C512.988,114.615 398.373,0 256.988,0C115.603,0 0.988,114.615 0.988,256C0.988,397.385 115.603,512 256.988,512Z" clip-path="url(#clip_path_0)"/><path fill="#0052B4" d="M256.988,0C179.397,0 109.874,34.524 62.927,89.043H451.048C404.102,34.524 334.579,0 256.988,0Z"/><path fill="#0052B4" d="M451.049,422.957H62.927C109.874,477.476 179.397,512 256.988,512C334.579,512 404.102,477.476 451.049,422.957Z"/><path fill="#D80027" d="M475.414,122.435H38.562C14.733,161.32 0.988,207.053 0.988,256C0.988,304.947 14.733,350.681 38.562,389.565H475.414C499.243,350.681 512.988,304.947 512.988,256C512.988,207.053 499.243,161.32 475.414,122.435Z"/><path fill="#F0F0F0" d="M158.484,354.504C212.886,354.504 256.988,310.402 256.988,256C256.988,201.598 212.886,157.496 158.484,157.496C104.082,157.496 59.98,201.598 59.98,256C59.98,310.402 104.082,354.504 158.484,354.504Z"/><path fill="#D80027" d="M158.484,157.496L180.585,225.517H252.223L194.246,267.559L216.52,335.783L158.484,293.541L100.536,335.704L122.722,267.559L64.797,225.517H136.382L158.484,157.496Z"/></g></svg>