<svg id="vector" xmlns="http://www.w3.org/2000/svg" width="300" height="150" viewBox="0 0 300 150"><path fill="#D20000" d="M0,0h300v150h-300z" id="path_0"/><path fill="#FFE600" d="M0,0h45l105,72.321l105,-72.321h45l-300,150h45l105,-72.321l105,72.321h45L0,0zM300,60v30l-300,-30l0,0v30L300,60zM135,0l15,64.286l15,-64.286L135,0zM135,150l15,-64.286l15,64.286L135,150z" id="path_1"/><path fill="#FFE600" d="M150,75m-24.107,0a24.107,24.107 0,1 1,48.214 0a24.107,24.107 0,1 1,-48.214 0" stroke-width="4.2857" stroke="#D20000" id="path_2"/></svg>