<svg id="vector" xmlns="http://www.w3.org/2000/svg" width="512" height="512" viewBox="0 0 512 512"><path fill="#0052B4" d="M256,512C287.314,512 317.311,506.368 345.043,496.077L356.174,256L345.044,15.923C317.311,5.633 287.314,0 256,0C224.686,0 194.689,5.633 166.957,15.923L155.826,256L166.956,496.077C194.689,506.368 224.686,512 256,512Z" id="path_0"/><path fill="#A2001D" d="M0,256C0,366.071 69.472,459.906 166.957,496.077V15.923C69.472,52.094 0,145.929 0,256Z" id="path_1"/><path fill="#A2001D" d="M345.043,15.923V496.078C442.528,459.906 512,366.071 512,256C512,145.929 442.528,52.094 345.043,15.923Z" id="path_2"/><path fill="#FFDA44" d="M122.435,256H144.696V345.043H122.435V256Z" id="path_3"/><path fill="#FFDA44" d="M33.391,256H55.652V345.043H33.391V256Z" id="path_4"/><path fill="#FFDA44" d="M89.043,311.652C101.338,311.652 111.304,301.685 111.304,289.391C111.304,277.096 101.338,267.13 89.043,267.13C76.749,267.13 66.782,277.096 66.782,289.391C66.782,301.685 76.749,311.652 89.043,311.652Z" id="path_5"/><path fill="#FFDA44" d="M89.043,222.608C95.19,222.608 100.173,217.625 100.173,211.478C100.173,205.331 95.19,200.348 89.043,200.348C82.896,200.348 77.913,205.331 77.913,211.478C77.913,217.625 82.896,222.608 89.043,222.608Z" id="path_6"/><path fill="#FFDA44" d="M66.783,322.783H111.305V345.044H66.783V322.783Z" id="path_7"/><path fill="#FFDA44" d="M66.783,233.739H111.305V256H66.783V233.739Z" id="path_8"/><path fill="#FFDA44" d="M89.043,133.565L96.927,157.825H122.435L101.8,172.819L109.678,197.079L89.043,182.085L68.409,197.079L76.287,172.819L55.652,157.825H81.16L89.043,133.565Z" id="path_9"/></svg>