<svg id="vector" xmlns="http://www.w3.org/2000/svg" width="512" height="512" viewBox="0 0 512 512"><path fill="#F0F0F0" d="M256,512C397.385,512 512,397.385 512,256C512,114.615 397.385,0 256,0C114.615,0 0,114.615 0,256C0,397.385 114.615,512 256,512Z" id="path_0"/><path fill="#A2001D" d="M74.981,437.02C85.72,447.759 97.178,457.336 109.197,465.768L465.766,109.198C457.335,97.179 447.758,85.721 437.018,74.982C426.279,64.243 414.821,54.667 402.802,46.235L46.234,402.805C54.665,414.822 64.242,426.281 74.981,437.02Z" id="path_1"/><path fill="#0052B4" d="M74.981,74.98C-5.783,155.744 -21.287,277.036 28.436,373.378L373.378,28.437C277.036,-21.286 155.743,-5.78 74.981,74.98Z" id="path_2"/><path fill="#496E2D" d="M437.019,437.02C517.781,356.258 533.285,234.965 483.564,138.622L138.622,483.564C234.963,533.287 356.256,517.783 437.019,437.02Z" id="path_3"/><path fill="#FFDA44" d="M211.478,144.696L182.792,158.189L198.068,185.971L166.919,180.013L162.971,211.478L141.275,188.335L119.578,211.478L115.632,180.013L84.482,185.97L99.757,158.188L71.072,144.696L99.758,131.202L84.482,103.422L115.631,109.38L119.579,77.913L141.275,101.057L162.972,77.913L166.919,109.38L198.068,103.422L182.794,131.203L211.478,144.696Z" id="path_4"/></svg>