<svg id="vector" xmlns="http://www.w3.org/2000/svg" width="513" height="512" viewBox="0 0 513 512"><defs><clipPath id="clip_path_0"><path d="M0.988,0h512v512h-512z"/></clipPath></defs><g id="g_0"><path fill="#F0F0F0" d="M256.988,512C398.373,512 512.988,397.385 512.988,256C512.988,114.615 398.373,0 256.988,0C115.603,0 0.988,114.615 0.988,256C0.988,397.385 115.603,512 256.988,512Z" clip-path="url(#clip_path_0)"/><path fill="#6DA544" d="M0.988,256C0.988,366.072 70.46,459.906 167.945,496.078V15.924C70.46,52.094 0.988,145.93 0.988,256Z"/><path fill="#6DA544" d="M512.988,256C512.988,145.93 443.516,52.094 346.031,15.924V496.079C443.516,459.906 512.988,366.072 512.988,256Z"/></g></svg>