<svg id="vector" xmlns="http://www.w3.org/2000/svg" width="513" height="512" viewBox="0 0 513 512"><defs><clipPath id="clip_path_0"><path d="M0.578,0h512v512h-512z"/></clipPath></defs><g id="g_0"><path fill="#F0F0F0" d="M25.98,144.696C9.706,178.352 0.578,216.109 0.578,256C0.578,295.891 9.706,333.648 25.98,367.304L256.578,389.565L487.176,367.304C503.45,333.648 512.578,295.891 512.578,256C512.578,216.109 503.45,178.352 487.176,144.696L256.578,122.435L25.98,144.696Z" clip-path="url(#clip_path_0)"/><path fill="#000000" d="M25.989,367.304C67.395,452.935 155.084,512 256.578,512C358.072,512 445.761,452.935 487.167,367.304H25.989Z"/><path fill="#D80027" d="M25.989,144.696H487.167C445.761,59.065 358.072,0 256.578,0C155.084,0 67.395,59.065 25.989,144.696Z"/><path fill="#496E2D" d="M75.558,74.98C-24.416,174.954 -24.416,337.045 75.558,437.02C116.871,395.707 156.604,355.974 256.578,256L75.558,74.98Z"/></g></svg>