<svg id="vector" xmlns="http://www.w3.org/2000/svg" width="513" height="512" viewBox="0 0 513 512"><defs><clipPath id="clip_path_0"><path d="M0.578,-0.001h512v512h-512z"/></clipPath></defs><g id="g_0"><path fill="#FFDA44" d="M256.578,511.999C397.963,511.999 512.578,397.384 512.578,255.999C512.578,114.614 397.963,-0.001 256.578,-0.001C115.193,-0.001 0.578,114.614 0.578,255.999C0.578,397.384 115.193,511.999 256.578,511.999Z" clip-path="url(#clip_path_0)"/><path fill="#0052B4" d="M200.927,222.608H510.411C494.048,97.001 386.645,-0.001 256.578,-0.001C237.464,-0.001 218.845,2.112 200.926,6.084V222.608H200.927Z"/><path fill="#0052B4" d="M134.143,222.607V31.126C63.849,69.48 13.528,139.831 2.745,222.608H134.143V222.607Z"/><path fill="#0052B4" d="M134.142,289.39H2.745C13.528,372.167 63.849,442.518 134.143,480.871L134.142,289.39Z"/><path fill="#0052B4" d="M200.926,289.391V505.914C218.845,509.886 237.464,511.999 256.578,511.999C386.645,511.999 494.048,414.997 510.411,289.39H200.926V289.391Z"/></g></svg>