<svg id="vector" xmlns="http://www.w3.org/2000/svg" width="512" height="512" viewBox="0 0 512 512"><defs><clipPath id="clip_path_0"><path d="M0,-0.001h512v512h-512z"/></clipPath></defs><g id="g_0"><path fill="#F0F0F0" d="M496.077,345.042C506.368,317.309 512,287.313 512,255.999C512,224.685 506.368,194.689 496.077,166.956L256,144.695L15.923,166.956C5.632,194.689 0,224.685 0,255.999C0,287.313 5.632,317.309 15.923,345.042L256,367.303L496.077,345.042Z" clip-path="url(#clip_path_0)"/><path fill="#338AF3" d="M256,511.999C366.07,511.999 459.906,442.527 496.076,345.042H15.922C52.094,442.527 145.928,511.999 256,511.999Z"/><path fill="#6DA544" d="M256,-0.001C145.928,-0.001 52.094,69.471 15.922,166.956H496.077C459.906,69.471 366.07,-0.001 256,-0.001Z"/></g></svg>