<svg id="vector" xmlns="http://www.w3.org/2000/svg" width="513" height="512" viewBox="0 0 513 512"><defs><clipPath id="clip_path_0"><path d="M0.578,0h512v512h-512z"/></clipPath></defs><g id="g_0"><path fill="#F0F0F0" d="M256.578,512C397.963,512 512.578,397.385 512.578,256C512.578,114.615 397.963,0 256.578,0C115.193,0 0.578,114.615 0.578,256C0.578,397.385 115.193,512 256.578,512Z" clip-path="url(#clip_path_0)"/><path fill="#D80027" d="M256.578,0C146.507,0 52.672,69.472 16.501,166.957H496.656C460.484,69.472 366.649,0 256.578,0Z"/><path fill="#000000" d="M256.578,512C366.649,512 460.484,442.528 496.655,345.043H16.501C52.672,442.528 146.507,512 256.578,512Z"/><path fill="#6DA544" d="M153.54,194.783L167.353,237.295H212.056L175.891,263.573L189.705,306.087L153.54,279.812L117.375,306.087L131.189,263.573L95.024,237.295H139.727L153.54,194.783Z"/><path fill="#6DA544" d="M359.616,194.783L373.429,237.295H418.133L381.967,263.573L395.781,306.087L359.616,279.812L323.451,306.087L337.265,263.573L301.1,237.295H345.803L359.616,194.783Z"/></g></svg>