<svg id="vector" xmlns="http://www.w3.org/2000/svg" width="512" height="512" viewBox="0 0 512 512"><defs><clipPath id="clip_path_0"><path d="M0,0.001h512v512h-512z"/></clipPath></defs><g id="g_0"><path fill="#F0F0F0" d="M256,512.001C397.385,512.001 512,397.386 512,256.001C512,114.616 397.385,0.001 256,0.001C114.615,0.001 0,114.616 0,256.001C0,397.386 114.615,512.001 256,512.001Z" clip-path="url(#clip_path_0)"/><path fill="#0052B4" d="M496.077,166.958H15.923C5.632,194.691 0,224.687 0,256.001C0,287.315 5.632,317.311 15.923,345.044H496.078C506.368,317.311 512,287.315 512,256.001C512,224.687 506.368,194.691 496.077,166.958Z"/><path fill="#D80027" d="M256,0.001C178.409,0.001 108.886,34.525 61.939,89.044H450.06C403.114,34.525 333.591,0.001 256,0.001Z"/><path fill="#D80027" d="M450.061,422.958H61.939C108.886,477.477 178.409,512.001 256,512.001C333.591,512.001 403.114,477.477 450.061,422.958Z"/></g></svg>