<svg id="vector" xmlns="http://www.w3.org/2000/svg" width="512" height="512" viewBox="0 0 512 512"><path fill="#FFDA44" d="M256,512C397.385,512 512,397.385 512,256C512,114.615 397.385,0 256,0C114.615,0 0,114.615 0,256C0,397.385 114.615,512 256,512Z" id="path_0"/><path fill="#000000" d="M74.98,437.02C85.719,447.759 97.177,457.336 109.196,465.768L465.766,109.197C457.336,97.178 447.758,85.72 437.019,74.981C426.279,64.242 414.822,54.666 402.803,46.234L46.234,402.805C54.664,414.821 64.242,426.28 74.98,437.02Z" id="path_1"/><path fill="#6DA544" d="M74.98,74.98C-5.782,155.744 -21.287,277.035 28.436,373.378L373.378,28.437C277.035,-21.286 155.743,-5.78 74.98,74.98Z" id="path_2"/><path fill="#338AF3" d="M437.019,437.02C517.781,356.258 533.285,234.965 483.564,138.622L138.622,483.564C234.963,533.287 356.256,517.782 437.019,437.02Z" id="path_3"/></svg>