<svg id="vector" xmlns="http://www.w3.org/2000/svg" width="100" height="100" viewBox="0 0 100 100"><defs><clipPath id="clip_path_0"><path d="M50,50m-50,0a50,50 0,1 1,100 0a50,50 0,1 1,-100 0"/></clipPath></defs><g id="g_0"><path fill="#41479B" d="M33.753,100.271H2.342C1.396,100.271 0.629,99.093 0.629,97.64V2.905C0.629,1.451 1.396,0.273 2.342,0.273H33.753V100.271Z" clip-path="url(#clip_path_0)"/><path fill="#FFE15A" d="M66.877,0.274H33.753V100.273H66.877V0.274Z"/><path fill="#FF4B55" d="M98.286,100.271H66.876V0.273H98.286C99.232,0.273 100,1.451 100,2.905V97.64C100,99.093 99.232,100.271 98.286,100.271Z"/></g></svg>